<svg width="183" height="193" viewBox="0 0 183 193" fill="none" xmlns="http://www.w3.org/2000/svg">
<path d="M140.12 76.8021C143.075 80.5937 146.304 85.3118 148.95 90.4134C151.963 96.2395 153.703 102.491 154.765 108.904C156.546 119.711 155.407 130.268 151.591 140.506C148.333 149.32 143.879 157.436 137.762 164.591C134.323 168.621 130.61 172.363 126.306 175.473C122.411 178.298 118.215 180.642 113.635 182.189C110.669 183.206 107.621 183.696 104.478 183.326C103.08 183.172 101.734 182.765 100.424 182.243C97.674 181.091 96.0154 179.022 95.1896 176.243C94.6962 174.515 94.5857 172.734 94.7083 170.979C94.9327 167.443 95.6903 163.989 96.9502 160.685C98.0605 157.884 99.264 155.092 100.328 152.286C102.429 146.905 104.485 141.519 106.498 136.082C107.541 133.249 108.335 130.318 109.011 127.398C110.434 121.117 110.588 114.791 109.614 108.435C108.785 103.109 106.772 98.2658 103.802 93.7649C99.4158 87.1275 93.5821 82.2877 86.3989 78.9971C85.2543 78.4702 84.0529 78.0313 82.8464 77.6391C75.4414 75.2908 67.8255 74.2162 60.0347 74.3014C53.3309 74.3648 46.7936 75.2719 40.2567 76.6034C35.1432 77.6437 29.9933 78.5857 24.89 79.5327C22.6748 79.949 20.4127 80.1479 18.1868 80.2329C17.5708 80.2594 16.9702 80.1461 16.4368 79.8515C15.5459 79.3761 14.6551 78.9007 13.7383 78.4461C12.5109 77.8157 11.6506 76.8485 11.0334 75.6015C9.08314 71.6846 8.57184 67.5489 9.76874 63.3184C11.0894 58.6064 13.5651 54.5403 16.7297 50.8566C22.3298 44.3285 29.4126 40.1804 37.7659 38.2C44.6907 36.5574 51.7151 36.1521 58.7612 36.8338C64.6425 37.3872 70.4104 38.5412 76.1733 39.7418C83.4791 41.2774 90.6506 43.1755 97.7037 45.7208C108.273 49.5258 117.767 55.1696 126.275 62.4967C131.051 66.6542 135.539 71.0862 140.12 76.8021Z" fill="white"/>
<mask id="mask0_1248_1784" style="mask-type:alpha" maskUnits="userSpaceOnUse" x="9" y="36" width="147" height="148">
<path d="M140.12 76.8021C143.075 80.5937 146.304 85.3118 148.95 90.4134C151.963 96.2395 153.703 102.491 154.765 108.904C156.546 119.711 155.407 130.268 151.591 140.506C148.333 149.32 143.879 157.436 137.762 164.591C134.323 168.621 130.61 172.363 126.306 175.473C122.411 178.298 118.215 180.642 113.635 182.189C110.669 183.206 107.621 183.696 104.478 183.326C103.08 183.172 101.734 182.765 100.424 182.243C97.674 181.091 96.0154 179.022 95.1896 176.243C94.6962 174.515 94.5857 172.734 94.7083 170.979C94.9327 167.443 95.6903 163.989 96.9502 160.685C98.0605 157.884 99.264 155.092 100.328 152.286C102.429 146.905 104.485 141.519 106.498 136.082C107.541 133.249 108.335 130.318 109.011 127.398C110.434 121.117 110.588 114.791 109.614 108.435C108.785 103.109 106.772 98.2658 103.802 93.7649C99.4158 87.1275 93.5821 82.2877 86.3989 78.9971C85.2543 78.4702 84.0529 78.0313 82.8464 77.6391C75.4414 75.2908 67.8255 74.2162 60.0347 74.3014C53.3309 74.3648 46.7936 75.2719 40.2567 76.6034C35.1432 77.6437 29.9933 78.5857 24.89 79.5327C22.6748 79.949 20.4127 80.1479 18.1868 80.2329C17.5708 80.2594 16.9702 80.1461 16.4368 79.8515C15.5459 79.3761 14.6551 78.9007 13.7383 78.4461C12.5109 77.8157 11.6506 76.8485 11.0334 75.6015C9.08314 71.6846 8.57184 67.5489 9.76874 63.3184C11.0894 58.6064 13.5651 54.5403 16.7297 50.8566C22.3298 44.3285 29.4126 40.1804 37.7659 38.2C44.6907 36.5574 51.7151 36.1521 58.7612 36.8338C64.6425 37.3872 70.4104 38.5412 76.1733 39.7418C83.4791 41.2774 90.6506 43.1755 97.7037 45.7208C108.273 49.5258 117.767 55.1696 126.275 62.4967C131.051 66.6542 135.539 71.0862 140.12 76.8021Z" fill="black"/>
</mask>
<g mask="url(#mask0_1248_1784)">
<path d="M74.7084 124.607C74.7531 124.871 74.7905 124.969 74.7813 125.062C75.0443 130.034 76.5406 134.68 78.4962 139.207C80.8683 144.764 83.7647 150.019 86.8359 155.174C89.1405 159.028 91.5732 162.778 94.1294 166.469C96.522 169.908 98.9915 173.284 101.713 176.497C104.219 179.5 107.047 182.11 110.461 184.025C117.472 187.92 124.581 187.963 131.68 184.282C137.936 181.037 142.346 175.961 145.214 169.579C149.104 160.942 149.151 152.115 145.998 143.254C145.038 140.569 143.755 138.063 142.177 135.67C142.093 135.568 142.009 135.465 141.862 135.286C141.597 135.589 141.331 135.893 141.091 136.175C136.14 141.952 130.379 146.635 123.487 149.888C118.818 152.089 113.932 153.397 108.749 153.403C103.992 153.405 99.5055 152.326 95.4557 149.689C92.2928 147.61 89.8778 144.876 88.7092 141.204C87.2832 136.8 88.0287 132.587 90.4142 128.701C91.2008 127.412 92.2115 126.24 93.1381 124.966C93.0914 124.961 92.9304 124.922 92.7905 124.908C89.8147 124.991 87.7326 123.655 86.5187 120.921C85.9432 119.592 85.6569 118.198 85.5617 116.776C85.4049 114.546 85.6726 112.312 86.1689 110.147C87.3146 105.22 89.4498 100.767 92.2197 96.5653C96.1836 90.5267 101.142 85.3871 107.082 81.2864C109.864 79.347 112.873 77.7362 116.015 76.4448C116.262 76.3279 116.483 76.2319 116.726 76.1617C116.761 76.0473 116.791 75.9797 116.774 75.9074C116.835 70.2843 116.151 64.7999 114.129 59.513C112.852 56.2309 111.096 53.2549 108.637 50.7277C104.039 46.0109 98.4649 44.0241 91.9193 44.7206C89.8719 44.9424 87.8902 45.4534 85.9998 46.2325C85.8296 46.2864 85.6548 46.3869 85.48 46.4874C85.5128 46.6319 85.499 46.7719 85.5575 46.8954C87.574 53.43 88.2731 60.1879 88.1909 66.9864C88.0904 73.9715 87.1081 80.8225 85.0574 87.5209C83.9519 91.086 82.5034 94.5465 80.4294 97.6627C79.1329 99.5838 77.6215 101.295 75.7179 102.685C74.7789 103.37 73.7137 103.901 72.5993 104.215C69.7201 104.99 67.2562 104.182 65.1755 102.116C63.6296 100.597 62.6593 98.7353 61.8684 96.7259C60.5133 93.0358 60.0676 89.1999 60.1698 85.3003C60.3524 78.6765 62.0305 72.4124 64.7211 66.3894C66.807 61.72 69.5605 57.4461 73.0189 53.6658C75.8649 50.6022 79.0637 48.021 82.7835 46.1271C83.0306 46.0101 83.231 45.8886 83.5037 45.7506C83.4544 45.5338 83.4005 45.3636 83.3467 45.1934C82.1577 41.9672 80.5726 38.9374 78.2837 36.3562C73.15 30.621 66.7709 28.437 59.2258 29.9534C55.2131 30.7585 51.7641 32.7733 48.6796 35.3894C46.2614 37.4589 44.2145 39.8241 42.4244 42.4501C42.2871 42.6486 42.1497 42.847 42.059 43.05C42.7646 44.0146 43.4748 44.9326 44.1594 45.8716C46.914 49.6998 49.0464 53.8671 50.6334 58.3102C52.9554 64.8514 54.1769 71.5666 53.8897 78.5333C53.7402 81.9572 53.1965 85.3186 51.9576 88.5643C51.144 90.6037 50.1063 92.5268 48.499 94.0169C47.8748 94.6147 47.1618 95.1567 46.3904 95.5752C43.8803 96.9055 41.1464 96.4472 38.8955 94.4351C37.205 92.9494 36.0948 91.0734 35.164 89.0502C34.9301 88.5561 34.6148 88.1717 34.1759 87.8457C30.5387 85.0844 27.5002 81.7463 24.9321 77.9365C20.5765 71.4772 17.9109 64.3604 16.9773 56.6373C16.5388 52.967 16.5667 49.3427 17.3037 45.6941C17.8204 43.0837 18.68 40.5778 20.2841 38.4044C22.6216 35.2436 25.7171 33.9475 29.6035 34.6608C32.1718 35.1263 34.4287 36.3618 36.539 37.889C37.9653 38.9483 39.3102 40.1173 40.5013 41.4125C40.7162 41.6221 40.91 41.8061 41.1669 42.067C41.3811 41.8055 41.544 41.586 41.7326 41.3456C43.7323 38.5047 46.0402 35.8826 48.752 33.7008C52.2327 30.8883 56.1273 28.8939 60.6137 28.3003C68.915 27.2354 75.568 30.2237 80.6398 36.8243C82.3499 39.0657 83.6335 41.5711 84.6445 44.2146C84.7358 44.4826 84.8737 44.7553 85.0071 45.0747C85.3008 44.9624 85.5689 44.8711 85.8369 44.7798C90.0889 43.221 94.4307 42.6603 98.8631 43.5688C104.152 44.6324 108.297 47.491 111.554 51.7221C114.794 55.8809 116.561 60.648 117.561 65.7869C118.12 68.7154 118.369 71.684 118.405 74.6552C118.424 74.9397 118.418 75.2452 118.432 75.5764C118.773 75.4687 119.062 75.403 119.33 75.3117C122.967 74.2575 126.676 73.658 130.485 73.9632C140.674 74.7803 147.845 79.9159 151.838 89.3305C153.805 93.9761 154.43 98.8659 154.31 103.894C154.117 111.341 152.039 118.32 148.656 124.91C147.114 127.89 145.352 130.708 143.345 133.383C143.234 133.56 143.101 133.712 142.938 133.932C143.487 134.81 144.062 135.668 144.564 136.542C151.595 148.352 152.154 163.928 143.375 176.275C140.093 180.897 135.918 184.536 130.659 186.749C122.599 190.146 114.916 189.246 107.675 184.339C105.289 182.738 103.199 180.765 101.345 178.556C98.7541 175.451 96.3221 172.173 94.0135 168.836C90.5881 163.929 87.3934 158.832 84.518 153.603C81.5421 148.198 78.8086 142.723 76.7697 136.893C75.4868 133.186 74.612 129.402 74.5533 125.463C74.5461 125.298 74.5435 125.086 74.5362 124.92C74.5665 124.852 74.5921 124.831 74.7084 124.607ZM102.66 119.17C103.047 119.066 103.285 119.043 103.481 118.968C106.42 118.057 109.407 117.622 112.493 117.62C118.846 117.682 124.728 119.416 130.238 122.527C134.544 124.954 138.238 128.098 141.349 131.891C141.517 132.096 141.732 132.305 141.942 132.562C142.131 132.321 142.289 132.148 142.422 131.997C143.423 130.447 144.538 128.932 145.471 127.352C149.376 120.718 151.872 113.569 152.424 105.828C152.784 100.988 152.362 96.1889 150.794 91.5591C149.445 87.5634 147.342 84.0585 144.206 81.2289C140.767 78.1339 136.723 76.3923 132.169 75.7545C127.569 75.1121 123.078 75.7523 118.7 77.1573C118.602 77.1947 118.525 77.2578 118.448 77.3209C118.418 77.3885 118.388 77.4562 118.383 77.5029C118.37 77.6428 118.351 77.8294 118.337 77.9694C117.88 87.1332 115.7 95.8679 112.044 104.269C110.061 108.854 107.608 113.181 104.467 117.087C103.91 117.715 103.328 118.364 102.66 119.17ZM140.934 133.946C140.708 133.617 140.523 133.34 140.308 133.13C139.206 131.891 138.108 130.605 136.929 129.429C131.857 124.501 125.843 121.246 118.94 119.834C111.414 118.291 104.253 119.021 97.6371 123.29C94.6683 125.211 92.3322 127.642 90.7714 130.809C88.1453 136.179 89.0856 141.924 93.2542 146.221C95.4354 148.462 98.0424 149.968 100.985 150.941C104.498 152.089 108.1 152.35 111.744 151.932C117.726 151.227 123.112 148.909 128.167 145.663C132.091 143.13 135.569 140.105 138.669 136.619C139.414 135.751 140.138 134.856 140.934 133.946ZM84.0279 47.1213C83.7341 47.2336 83.5896 47.2665 83.4404 47.346C80.7135 48.7255 78.2507 50.5315 76.0192 52.6194C73.0865 55.3682 70.6091 58.5152 68.5705 61.9882C64.2398 69.3566 61.7429 77.2358 61.5325 85.8116C61.448 89.0535 61.8137 92.2691 62.7786 95.379C63.4085 97.3489 64.2645 99.1763 65.6146 100.77C67.7681 103.29 70.5816 103.898 73.5509 102.448C75.4341 101.503 76.9179 100.072 78.1868 98.4306C80.2916 95.7178 81.7243 92.6561 82.8653 89.4478C84.722 84.2376 85.7482 78.8512 86.2402 73.3885C86.9045 65.9409 86.6267 58.4945 85.0196 51.1524C84.7753 49.8094 84.3865 48.4992 84.0279 47.1213ZM116.628 77.8713C116.36 77.9626 116.117 78.0329 115.921 78.1078C113.073 79.2869 110.362 80.7387 107.811 82.4888C101.927 86.5009 97.1178 91.561 93.2564 97.5155C90.6961 101.502 88.6516 105.752 87.5591 110.378C87.028 112.657 86.7512 114.985 86.9921 117.317C87.0892 118.481 87.3775 119.616 87.9083 120.681C88.9863 122.884 90.9351 123.901 93.332 123.478C94.1015 123.318 94.9011 123.091 95.5957 122.735C97.4999 121.816 99.1775 120.569 100.666 119.091C102.778 117.014 104.562 114.694 106.105 112.185C112.428 101.81 115.826 90.5339 116.64 78.4613C116.654 78.3214 116.626 78.1302 116.628 77.8713ZM37.1219 89.9736C38.1342 91.887 39.3772 93.6112 41.4284 94.5438C43.027 95.2904 44.6032 95.0691 46.0574 94.1763C46.5095 93.8912 46.9918 93.5384 47.3808 93.1764C48.6503 92.0063 49.523 90.5615 50.2184 89.005C51.3415 86.4545 51.9351 83.781 52.2324 81.0076C52.7598 75.9017 52.3405 70.8437 51.2332 65.8355C49.72 58.9738 47.1463 52.5962 43.0994 46.8268C42.499 45.9903 41.8729 45.1749 41.2468 44.3594C41.1443 44.4435 41.072 44.4599 41.0464 44.481C40.8532 44.7681 40.66 45.0552 40.5134 45.3469C34.7684 55.5904 32.4598 66.5735 33.6131 78.275C33.9321 81.4861 34.6802 84.6453 35.9131 87.6639C36.105 88.1068 36.3737 88.4866 36.7961 88.7402C37.6831 89.2988 38.5654 89.9041 39.4478 90.5093C39.6252 90.621 39.7303 90.7491 39.9077 90.8609C38.8374 90.9672 38.0785 90.3035 37.1219 89.9736ZM40.3336 43.3508C40.2285 43.2226 40.17 43.0991 40.0859 42.9966C37.9606 40.6671 35.621 38.5991 32.8438 37.1474C31.3432 36.3634 29.7683 35.8547 28.0843 35.7356C25.6026 35.5849 23.5374 36.4645 21.8466 38.3231C20.6309 39.6634 19.8167 41.2317 19.2265 42.9163C18.3806 45.2823 17.9967 47.7409 17.9136 50.2528C17.6739 56.023 18.7259 61.591 20.6873 67.0132C23.2971 74.2187 27.2933 80.5012 32.9533 85.676C33.2779 85.9671 33.6024 86.2582 33.9526 86.5283C31.7345 79.1731 31.4987 71.7779 32.6598 64.3087C33.7998 56.8138 36.3282 49.8092 40.3336 43.3508Z" fill="black"/>
</g>
</svg>
