<svg width="42" height="44" viewBox="0 0 42 44" fill="none" xmlns="http://www.w3.org/2000/svg">
<path d="M29.7209 29.6551C30.3209 32.2551 30.9209 34.3551 31.4209 36.5551C31.5209 37.0551 31.7209 37.6551 31.8209 38.1551C32.0209 39.0551 31.8209 39.9551 30.9209 40.4551C30.0209 40.9551 29.2209 40.5551 28.6209 39.8551C26.8209 37.7551 25.0209 35.5551 23.2209 33.4551C22.8209 32.9551 22.4209 32.5551 21.7209 31.8551C21.1209 33.9551 20.5209 35.7551 19.9209 37.5551C19.4209 39.0551 19.0209 40.6551 18.3209 42.0551C18.1209 42.6551 17.3209 43.2551 16.8209 43.3551C15.8209 43.4551 15.5209 42.5551 15.4209 41.7551C15.2209 39.5551 15.1209 37.2551 14.9209 35.0551C14.8209 33.6551 14.7209 32.2551 14.5209 30.4551C13.5209 30.8551 12.8209 31.0551 12.1209 31.3551C10.0209 32.1551 7.92087 33.0551 5.92087 33.8551C5.22087 34.1551 4.52087 34.3551 3.82087 34.4551C2.72087 34.6551 1.52087 34.6551 0.820874 33.5551C0.220874 32.6551 0.520874 31.4551 1.72087 30.3551C3.72087 28.5551 5.72087 26.9551 7.82087 25.2551C8.42087 24.7551 9.02087 24.2551 9.72087 23.6551C7.62087 22.6551 5.52087 21.6551 3.62087 20.6551C1.62087 19.6551 1.02087 18.6551 1.42087 17.4551C1.82087 16.2551 2.92087 15.6551 5.02087 15.8551C7.32087 16.0551 9.62087 16.3551 11.9209 16.5551C12.9209 16.6551 13.9209 16.5551 15.2209 16.5551C15.0209 15.0551 15.0209 13.8551 14.8209 12.6551C14.4209 10.6551 13.9209 8.75512 13.5209 6.75512C13.4209 6.05512 13.3209 5.35512 13.3209 4.65512C13.4209 3.65512 13.8209 2.75512 14.9209 2.45512C15.9209 2.15512 16.7209 2.55512 17.2209 3.35512C18.7209 5.25512 19.9209 7.15512 21.2209 8.95512C21.7209 9.75512 22.2209 10.5551 23.2209 11.2551C23.6209 9.05512 23.9209 6.95512 24.3209 4.75512C24.5209 3.85512 24.6209 2.85512 24.9209 1.95512C25.3209 0.655123 26.1209 0.0551235 27.1209 0.155123C28.2209 0.355123 28.7209 1.15512 28.9209 2.15512C29.2209 4.65512 29.4209 7.05512 29.6209 9.55512C29.7209 10.1551 29.7209 10.8551 29.7209 11.7551C30.5209 11.4551 31.1209 11.1551 31.7209 10.8551C33.2209 10.0551 34.7209 9.25512 36.2209 8.55512C38.0209 7.65512 39.0209 7.65512 39.7209 8.65512C40.3209 9.55512 40.1209 10.5551 38.8209 12.0551C37.6209 13.4551 36.4209 14.8551 35.2209 16.2551C34.3209 17.2551 33.5209 18.3551 32.5209 19.5551C32.9209 20.0551 33.3209 20.5551 33.8209 20.9551C36.0209 23.3551 38.3209 25.7551 40.5209 28.1551C41.2209 28.9551 41.6209 29.7551 41.0209 30.7551C40.4209 31.7551 39.5209 31.7551 38.5209 31.5551C35.7209 30.9551 32.9209 30.3551 29.7209 29.6551Z" fill="black"/>
</svg>
