<svg width="179" height="272" viewBox="0 0 179 272" fill="none" xmlns="http://www.w3.org/2000/svg">
<path d="M51.5559 124.073C47.1946 124.073 43.2365 123.251 39.6818 121.608C36.127 119.936 33.304 117.531 31.213 114.394C29.1219 111.228 28.0764 107.404 28.0764 102.923C28.0764 98.9802 28.8531 95.7839 30.4064 93.3343C31.9598 90.855 34.0359 88.9133 36.6348 87.5093C39.2337 86.1053 42.1014 85.0598 45.238 84.3727C48.4044 83.6558 51.5858 83.0882 54.7821 82.67C58.9642 82.1323 62.3547 81.729 64.9536 81.4602C67.5824 81.1614 69.4942 80.6685 70.6891 79.9815C71.9138 79.2944 72.5262 78.0995 72.5262 76.3968V76.0384C72.5262 71.6173 71.3164 68.182 68.8967 65.7325C66.507 63.2829 62.8775 62.0582 58.0083 62.0582C52.9599 62.0582 49.0019 63.1635 46.1341 65.374C43.2664 67.5845 41.25 69.9444 40.085 72.4537L30.048 68.869C31.8403 64.6869 34.2301 61.4309 37.2173 59.1008C40.2344 56.7409 43.5203 55.098 47.0751 54.1719C50.6598 53.216 54.1847 52.7381 57.6499 52.7381C59.8604 52.7381 62.3995 53.0069 65.2673 53.5446C68.1649 54.0524 70.9579 55.1129 73.6464 56.726C76.3648 58.3391 78.6201 60.7737 80.4125 64.0297C82.2048 67.2858 83.101 71.6471 83.101 77.1138V122.46H72.5262V113.14H71.9885C71.2716 114.633 70.0767 116.231 68.4038 117.934C66.731 119.637 64.5055 121.086 61.7274 122.28C58.9493 123.475 55.5588 124.073 51.5559 124.073ZM53.169 114.573C57.3511 114.573 60.8761 113.752 63.7438 112.109C66.6414 110.466 68.8221 108.345 70.2858 105.746C71.7794 103.147 72.5262 100.414 72.5262 97.5463V87.8677C72.0781 88.4054 71.0923 88.8983 69.5689 89.3464C68.0753 89.7646 66.3427 90.138 64.3711 90.4666C62.4294 90.7653 60.5325 91.0342 58.6805 91.2732C56.8583 91.4823 55.3796 91.6615 54.2444 91.8109C51.4962 92.1693 48.9272 92.7518 46.5374 93.5584C44.1775 94.3351 42.2657 95.515 40.802 97.0982C39.3681 98.6516 38.6512 100.773 38.6512 103.461C38.6512 107.135 40.0103 109.913 42.7287 111.795C45.477 113.647 48.9571 114.573 53.169 114.573Z" fill="white"/>
<path d="M98.6525 151.46V59.6924H130.735C137.128 59.6924 142.4 60.7977 146.553 63.0082C150.705 65.1889 153.797 68.1313 155.828 71.8354C157.859 75.5097 158.875 79.5873 158.875 84.0681C158.875 88.0112 158.173 91.2673 156.769 93.8363C155.395 96.4053 153.572 98.4366 151.302 99.9302C149.062 101.424 146.627 102.529 143.998 103.246V104.142C146.806 104.321 149.629 105.307 152.467 107.1C155.305 108.892 157.68 111.461 159.592 114.807C161.504 118.152 162.459 122.245 162.459 127.084C162.459 131.684 161.414 135.822 159.323 139.496C157.232 143.17 153.931 146.083 149.42 148.234C144.91 150.384 139.04 151.46 131.811 151.46H98.6525ZM109.765 141.602H131.811C139.07 141.602 144.222 140.198 147.269 137.39C150.346 134.552 151.885 131.117 151.885 127.084C151.885 123.977 151.093 121.11 149.51 118.481C147.927 115.822 145.671 113.701 142.744 112.118C139.816 110.505 136.351 109.698 132.348 109.698H109.765V141.602ZM109.765 100.02H130.377C133.722 100.02 136.74 99.3626 139.428 98.0483C142.146 96.7339 144.297 94.8818 145.88 92.492C147.493 90.1023 148.3 87.2943 148.3 84.0681C148.3 80.0353 146.896 76.615 144.088 73.807C141.28 70.9691 136.829 69.5502 130.735 69.5502H109.765V100.02Z" fill="white"/>
<g filter="url(#filter0_f_1_317)">
<path d="M100.315 132.346H88.0448C87.3191 128.817 86.0492 125.716 84.2351 123.044C82.454 120.373 80.2771 118.13 77.7043 116.316C75.1646 114.469 72.3445 113.083 69.244 112.16C66.1435 111.236 62.9111 110.774 59.5467 110.774C53.4117 110.774 47.8539 112.325 42.8734 115.425C37.9258 118.526 33.9842 123.094 31.0487 129.13C28.1461 135.166 26.6948 142.571 26.6948 151.345C26.6948 160.118 28.1461 167.523 31.0487 173.559C33.9842 179.595 37.9258 184.164 42.8734 187.264C47.8539 190.365 53.4117 191.915 59.5467 191.915C62.9111 191.915 66.1435 191.453 69.244 190.529C72.3445 189.606 75.1646 188.237 77.7043 186.423C80.2771 184.576 82.454 182.316 84.2351 179.645C86.0492 176.94 87.3191 173.84 88.0448 170.343H100.315C99.3912 175.522 97.709 180.156 95.2682 184.246C92.8274 188.336 89.7929 191.816 86.1647 194.685C82.5365 197.522 78.463 199.682 73.9442 201.167C69.4584 202.651 64.6592 203.393 59.5467 203.393C50.9049 203.393 43.2197 201.282 36.491 197.06C29.7623 192.838 24.4684 186.835 20.6093 179.051C16.7502 171.267 14.8206 162.031 14.8206 151.345C14.8206 140.658 16.7502 131.422 20.6093 123.638C24.4684 115.854 29.7623 109.851 36.491 105.629C43.2197 101.407 50.9049 99.2961 59.5467 99.2961C64.6592 99.2961 69.4584 100.038 73.9442 101.522C78.463 103.007 82.5365 105.184 86.1647 108.053C89.7929 110.89 92.8274 114.353 95.2682 118.443C97.709 122.5 99.3912 127.134 100.315 132.346Z" fill="white"/>
<path d="M94.5875 237.185V228.279L149.209 146.743H93.9938V135.858H163.854V144.764L109.232 226.3H164.447V237.185H94.5875Z" fill="white"/>
</g>
<defs>
<filter id="filter0_f_1_317" x="0.820618" y="85.2961" width="177.627" height="165.888" filterUnits="userSpaceOnUse" color-interpolation-filters="sRGB">
<feFlood flood-opacity="0" result="BackgroundImageFix"/>
<feBlend mode="normal" in="SourceGraphic" in2="BackgroundImageFix" result="shape"/>
<feGaussianBlur stdDeviation="7" result="effect1_foregroundBlur_1_317"/>
</filter>
</defs>
</svg>
