<svg width="88" height="24" viewBox="0 0 88 24" fill="none" xmlns="http://www.w3.org/2000/svg">
<g clip-path="url(#clip0_1_225)">
<path d="M43.5047 17.151H43.5135C44.8325 17.151 45.1955 16.7703 45.1955 15.3717V10.5736C45.1955 8.65259 44.6112 7.7939 43.3099 7.7939C42.4867 7.7939 41.6014 8.25424 40.6896 9.16604L40.6542 9.20145V15.3628C40.6542 16.6906 41.0614 17.1156 42.3716 17.1422V17.4608H36.6706V17.1422C37.9984 17.1156 38.3879 16.7083 38.3879 15.3628V9.57327C38.3879 8.25424 38.1224 7.76738 37.3964 7.76738C37.1574 7.76738 36.7857 7.85589 36.4846 7.96211V7.62576L39.7955 6.61655C39.9283 6.58115 40.0433 6.56344 40.1496 6.56344C40.4771 6.56344 40.6454 6.76707 40.6454 7.16541V8.48445L40.8489 8.24542C42.0617 6.81129 43.0797 6.24475 44.4785 6.24475C46.4703 6.24475 47.444 7.51947 47.444 10.131V15.3805C47.444 16.726 47.8689 17.1599 49.188 17.1599V17.4785H43.5047V17.151Z" fill="#939393"/>
<path d="M53.8532 17.8149C52.428 17.8149 51.3126 17.328 50.4539 16.31C49.604 15.3185 49.1703 14.0083 49.1703 12.4326C49.1703 10.7241 49.6749 9.3077 50.7106 8.08601C51.7463 6.83785 53.0388 6.23587 54.6765 6.23587C55.7122 6.23587 56.5178 6.528 57.0578 7.09458L57.2614 7.30701V4.20866C57.2614 2.51783 56.987 1.97784 56.1195 1.97784C55.907 1.97784 55.5352 2.05751 55.2696 2.14603L55.2785 1.80079L58.9523 0.649968C58.9965 0.641115 59.0408 0.632263 59.085 0.632263C59.324 0.632263 59.5188 0.827017 59.5188 1.06603V14.2473C59.5188 15.9824 59.8021 16.8411 60.4483 17.0182C60.5988 17.0624 60.9706 17.0978 61.4663 17.1067V17.4343L57.89 17.3988H57.2614V16.2746L57.0667 16.4428C56.0133 17.3723 54.9598 17.8149 53.8532 17.8149ZM54.6942 6.90866C52.9237 6.90866 51.7286 8.78537 51.7286 11.5739C51.7286 14.5218 53.1097 16.5844 55.0749 16.5844C55.7742 16.5844 56.5001 16.2392 57.2349 15.5575L57.2703 15.5221V10.3965C57.2791 8.18341 56.3408 6.90866 54.6942 6.90866Z" fill="#939393"/>
<path d="M66.3088 17.8149C64.8391 17.8149 63.6439 17.3015 62.6437 16.2392C61.6965 15.1769 61.2096 13.8224 61.2096 12.2202C61.2096 10.4674 61.6877 9.02442 62.6172 7.91789C63.5646 6.80247 64.8302 6.24475 66.3794 6.24475C69.0619 6.24475 70.8058 7.93559 70.8587 10.5648H63.0067V10.6798C63.0067 13.787 64.5556 15.7169 67.0522 15.7169C68.6367 15.7169 69.8142 14.9467 70.5576 13.4153L70.8234 13.61C70.5847 14.7962 70.0624 15.7965 69.2743 16.5844C68.442 17.4166 67.4769 17.8149 66.3088 17.8149ZM65.7954 6.95298C64.3256 6.95298 63.1394 8.18343 63.0332 9.82112L63.0244 9.9451H68.3267L68.3179 9.82112C68.2209 7.99752 67.2998 6.95298 65.7954 6.95298Z" fill="#939393"/>
<path d="M72.3991 4.30604C72.3991 2.69489 72.1074 2.15489 71.2575 2.15489C71.0181 2.15489 70.6376 2.21686 70.3718 2.30538V2.0044L73.9747 0.649971C74.0195 0.632266 74.0724 0.623413 74.1253 0.623413H74.223C74.4617 0.623413 74.6564 0.818168 74.6564 1.05718V15.3805C74.6564 16.6552 75.1081 17.1332 76.3738 17.1598V17.4785H72.3991V4.30604Z" fill="#939393"/>
<path d="M84.2966 17.8149C83.3938 17.8149 82.9516 17.2926 82.9245 16.2126L82.9157 15.9648L82.7298 16.1241C81.4465 17.2395 80.3131 17.8149 79.3662 17.8149C77.6489 17.8149 76.5772 16.788 76.5772 15.1504C76.5772 14.2651 77.029 13.4772 77.9406 12.7513C78.8793 12.0165 80.5254 11.2464 82.8363 10.4586L82.9157 10.432V10.3523C82.9157 8.16573 82.5881 6.90869 80.8978 6.90869C79.4633 6.90869 79.1628 7.68768 79.1628 8.34276C79.1628 9.52017 78.7904 10.0955 78.0206 10.0955C77.4007 10.0955 76.9848 9.66179 76.9848 9.0156C76.9848 8.27195 77.3565 7.64346 78.1176 7.0946C78.9057 6.52803 79.9591 6.24475 81.2607 6.24475C83.8896 6.24475 85.1736 7.32474 85.1736 9.53787V14.5307C85.1736 15.947 85.3859 16.2835 85.7576 16.3985C85.7929 16.4074 85.8282 16.4162 85.8729 16.4162C86.0852 16.4162 86.3416 16.2481 86.6428 15.9293L86.891 16.2303C86.0676 17.2838 85.1912 17.8149 84.2966 17.8149ZM82.7651 11.087C79.782 12.2999 78.8704 13.132 78.8704 14.628C78.8704 15.6283 79.5962 16.3808 80.5525 16.3808C81.1895 16.3808 81.9511 16.0533 82.8804 15.3894L82.9245 15.3539V11.0251L82.7651 11.087Z" fill="#939393"/>
<path d="M33.82 17.8149C32.9171 17.8149 32.4745 17.2926 32.4479 16.2126L32.439 15.9648L32.2531 16.1241C30.9695 17.2395 29.8364 17.8149 28.8892 17.8149C27.1718 17.8149 26.1007 16.788 26.1007 15.1504C26.1007 14.2651 26.5521 13.4772 27.4639 12.7513C28.4023 12.0165 30.0489 11.2464 32.3594 10.4586L32.439 10.432V10.3523C32.439 8.16573 32.1115 6.90869 30.4207 6.90869C28.9866 6.90869 28.6856 7.68768 28.6856 8.34276C28.6856 9.52017 28.3138 10.0955 27.5436 10.0955C26.924 10.0955 26.5079 9.66179 26.5079 9.0156C26.5079 8.27195 26.8797 7.64346 27.641 7.0946C28.42 6.52803 29.4823 6.24475 30.7837 6.24475C33.4217 6.24475 34.6964 7.32474 34.6964 9.53787V14.5307C34.6964 15.947 34.9089 16.2835 35.2807 16.3985C35.3161 16.4074 35.3515 16.4162 35.3958 16.4162C35.6082 16.4162 35.8649 16.2569 36.1659 15.9293L36.4138 16.2303C35.5905 17.2838 34.723 17.8149 33.82 17.8149ZM32.2885 11.087C29.3053 12.2999 28.3934 13.1231 28.3934 14.628C28.3934 15.6283 29.1194 16.3808 30.0754 16.3808C30.7128 16.3808 31.4741 16.0533 32.4036 15.3894L32.4479 15.3539V11.0251L32.2885 11.087Z" fill="#939393"/>
<path d="M18.7089 5.46567L18.7001 5.45681L18.585 5.386L18.5584 5.36829L12.344 1.78304L12.2378 1.72108C11.7067 1.42009 11.0958 1.25189 10.4407 1.25189C9.78567 1.25189 9.17482 1.42009 8.65255 1.72108L8.56404 1.77419L8.53745 1.7919L2.28762 5.39485L2.16368 5.46567H2.15483C1.10138 6.11189 0.393188 7.28045 0.393188 8.6083V15.9559C0.393188 17.2925 1.10138 18.4522 2.16368 19.0984L2.24335 19.1427L8.60826 22.8165C9.1483 23.1263 9.76797 23.3034 10.4407 23.3034C11.1047 23.3034 11.7332 23.1263 12.2732 22.8165L18.6293 19.1427L18.647 19.1338C19.7446 18.4965 20.4883 17.3102 20.4883 15.947V8.59942C20.4794 7.27157 19.7712 6.10304 18.7089 5.46567ZM18.9834 12.3883H18.9479C14.3181 12.406 10.547 16.1948 10.547 20.8247C10.547 20.8867 10.4939 20.9309 10.4407 20.9309C10.3788 20.9309 10.3345 20.8778 10.3345 20.8247V20.7893C10.3168 16.1594 6.52795 12.3883 1.89811 12.3883C1.83614 12.3883 1.79188 12.3352 1.79188 12.2821C1.79188 12.2201 1.84499 12.1758 1.89811 12.1758H1.93352C6.56336 12.1581 10.3345 8.36928 10.3345 3.73943C10.3345 3.67747 10.3876 3.63321 10.4407 3.63321C10.5027 3.63321 10.547 3.68632 10.547 3.73943C10.547 8.38698 14.327 12.1758 18.9834 12.1758C19.0453 12.1758 19.0896 12.229 19.0896 12.2821C19.0985 12.344 19.0453 12.3883 18.9834 12.3883Z" fill="#939393"/>
</g>
<defs>
<clipPath id="clip0_1_225">
<rect width="86.94" height="23.31" fill="white" transform="translate(0.39325 0.349426)"/>
</clipPath>
</defs>
</svg>
