<svg width="83" height="63" viewBox="0 0 83 63" fill="none" xmlns="http://www.w3.org/2000/svg">
<path d="M12.7477 2.07422L23.9839 29.0442L27.9729 17.2995L39.7177 13.3104L12.7477 2.07422Z" stroke="black" stroke-width="3.17855" stroke-linecap="round" stroke-linejoin="round"/>
<path d="M28.6404 17.9668L38.1761 27.5024" stroke="black" stroke-width="3.17855" stroke-linecap="round" stroke-linejoin="round"/>
<path d="M12.8017 55.4554C11.5163 55.8099 10.2973 55.8281 9.14448 55.5098C7.98815 55.1786 6.98363 54.5705 6.13093 53.6853C5.27469 52.7873 4.65867 51.6571 4.2829 50.2947C3.90712 48.9322 3.852 47.6542 4.11755 46.4606C4.3924 45.2507 4.93672 44.2153 5.75051 43.3546C6.5736 42.4776 7.62139 41.8635 8.89388 41.5126C9.70365 41.2892 10.522 41.2226 11.3491 41.3126C12.1726 41.3898 12.9526 41.6103 13.6892 41.9742C14.4223 42.3253 15.0434 42.7971 15.5527 43.3897L14.342 44.4913C13.936 44.0223 13.4531 43.6507 12.8934 43.3763C12.3336 43.1019 11.7472 42.9317 11.1343 42.8656C10.5178 42.7867 9.90745 42.8305 9.30334 42.9971C8.36504 43.2559 7.58872 43.7259 6.97439 44.4071C6.35652 45.0755 5.94894 45.8794 5.75166 46.819C5.56724 47.7551 5.62392 48.763 5.92171 49.8427C6.21949 50.9223 6.69568 51.8214 7.35027 52.5399C8.00487 53.2584 8.7705 53.7526 9.64716 54.0226C10.5331 54.2761 11.4517 54.2718 12.4029 54.0094C13.0198 53.8393 13.571 53.5559 14.0563 53.1592C14.5381 52.7497 14.9372 52.2662 15.2537 51.7086C15.5831 51.1475 15.7983 50.5488 15.8994 49.9123L17.5228 50.2322C17.3836 51.0313 17.0946 51.7887 16.6558 52.5045C16.2298 53.2167 15.6802 53.8316 15.0069 54.3493C14.3465 54.8634 13.6114 55.2321 12.8017 55.4554ZM19.7308 53.2954L16.0085 39.7993L17.5509 39.3739L21.2732 52.8699L19.7308 53.2954ZM23.2924 52.3131L20.6336 42.673L22.176 42.2476L24.8348 51.8876L23.2924 52.3131ZM20.8072 40.2185C20.5501 40.2894 20.2986 40.255 20.0526 40.1154C19.8067 39.9758 19.6482 39.7774 19.5773 39.5204C19.5029 39.2504 19.5372 38.9989 19.6804 38.7658C19.82 38.5198 20.0184 38.3614 20.2754 38.2905C20.5454 38.216 20.7969 38.2504 21.03 38.3936C21.2724 38.5203 21.4309 38.7187 21.5053 38.9886C21.5762 39.2457 21.5419 39.4972 21.4022 39.7432C21.2755 39.9856 21.0771 40.144 20.8072 40.2185ZM31.2692 50.362C30.318 50.6243 29.4176 50.6444 28.568 50.4223C27.7148 50.1874 26.978 49.7474 26.3575 49.1025C25.7371 48.4576 25.2903 47.6403 25.0174 46.6506C24.7444 45.6609 24.7026 44.7319 24.8919 43.8637C25.094 42.9919 25.5029 42.2428 26.1186 41.6166C26.7307 40.9775 27.5059 40.5286 28.4442 40.2698C29.3696 40.0146 30.2572 39.998 31.1068 40.2201C31.9564 40.4422 32.6804 40.8856 33.2787 41.5505L32.0467 42.5749C31.6479 42.1317 31.1652 41.836 30.5988 41.688C30.0288 41.5271 29.4289 41.5335 28.7991 41.7072C28.1693 41.8809 27.6527 42.1893 27.2494 42.6325C26.8589 43.0722 26.5985 43.6073 26.4681 44.238C26.3471 44.8523 26.3841 45.5129 26.5791 46.2199C26.774 46.9268 27.0827 47.5194 27.5051 47.9977C27.9367 48.4595 28.4393 48.7773 29.0128 48.9511C29.5992 49.1213 30.2073 49.1196 30.8371 48.9459C31.4669 48.7722 31.9817 48.4573 32.3815 48.0012C32.7942 47.5416 33.0493 46.9872 33.1468 46.3379L34.7298 46.5859C34.571 47.5149 34.1892 48.3118 33.5841 48.9766C32.9791 49.6414 32.2075 50.1032 31.2692 50.362ZM37.2132 45.1333L35.9375 44.3441L39.5558 37.4541L41.5031 36.917L37.2132 45.1333ZM36.5655 48.6522L32.8432 35.1561L34.3856 34.7307L38.1079 48.2268L36.5655 48.6522ZM42.6388 46.9772L37.4494 42.4541L38.1542 41.0979L44.5475 46.4507L42.6388 46.9772ZM49.1443 45.1829L46.4855 35.5428L47.9315 35.144L48.3809 36.4723C48.5347 35.8767 48.8057 35.3801 49.194 34.9825C49.5823 34.585 50.0849 34.3011 50.7019 34.131C51.4731 33.9183 52.1782 33.9174 52.8173 34.1284C53.4693 34.3359 54.0184 34.7722 54.4647 35.4375C54.5396 34.6561 54.7828 34.0082 55.1941 33.4936C55.6183 32.9755 56.1903 32.6172 56.9101 32.4187C57.9898 32.1209 58.9373 32.2468 59.7528 32.7964C60.5812 33.3425 61.191 34.35 61.5823 35.8188L63.1031 41.3329L61.5607 41.7583L60.1994 36.8226C59.9371 35.8715 59.6339 35.1736 59.29 34.7291C58.959 34.281 58.6015 34.013 58.2177 33.9252C57.8303 33.8246 57.4181 33.8346 56.9811 33.9551C56.2228 34.1643 55.7148 34.6294 55.4573 35.3505C55.1962 36.0587 55.2163 36.9591 55.5176 38.0517L56.8949 43.0452L55.3525 43.4706L53.9912 38.5349C53.7289 37.5838 53.4257 36.8859 53.0818 36.4413C52.7508 35.9932 52.3869 35.7271 51.9902 35.6428C51.6029 35.5422 51.1907 35.5521 50.7537 35.6727C50.0082 35.8783 49.5066 36.3417 49.2491 37.0627C48.988 37.771 49.0081 38.6714 49.3095 39.7639L50.6867 44.7575L49.1443 45.1829ZM69.0587 39.9393C68.1204 40.1981 67.2328 40.2147 66.396 39.989C65.5557 39.7505 64.8253 39.3088 64.2048 38.6639C63.5972 38.0155 63.1569 37.1964 62.884 36.2067C62.611 35.217 62.5692 34.288 62.7585 33.4197C62.9606 32.548 63.3567 31.8025 63.9466 31.1833C64.5459 30.5478 65.3082 30.1024 66.2337 29.8472C67.1334 29.599 67.9731 29.6095 68.7527 29.8785C69.5287 30.1348 70.2066 30.6117 70.7863 31.3093C71.366 32.007 71.8047 32.8957 72.1025 33.9753L64.1398 36.1715L64.435 35.7374C64.6477 36.5086 64.9653 37.1333 65.3876 37.6116C65.8228 38.0863 66.3319 38.4023 66.9147 38.5597C67.4939 38.7042 68.1049 38.6878 68.7476 38.5106C69.4288 38.3227 69.9565 38.0043 70.3306 37.5553C70.7175 37.1028 70.9669 36.5776 71.0786 35.9797L72.595 36.2876C72.4891 36.8563 72.2818 37.3837 71.9733 37.8699C71.6777 38.3525 71.2819 38.7729 70.7859 39.131C70.3028 39.4855 69.727 39.755 69.0587 39.9393ZM64.3506 35.0553L63.8607 34.8585L70.5123 33.0239L70.1978 33.4633C70.0277 32.8464 69.7584 32.3466 69.3901 31.9641C69.0218 31.5816 68.5984 31.325 68.1197 31.1942C67.641 31.0634 67.1318 31.0725 66.5919 31.2214C66.0649 31.3667 65.5973 31.6271 65.1891 32.0025C64.7938 32.3743 64.5103 32.8259 64.3387 33.3573C64.1765 33.8723 64.1805 34.4383 64.3506 35.0553ZM74.1794 34.0664L71.4788 24.5001L73.1561 24.0375L75.7604 33.6304L74.1794 34.0664ZM76.1239 38.0322C75.8282 38.1137 75.5428 38.0818 75.2676 37.9364C75.0052 37.7875 74.8332 37.5652 74.7517 37.2695C74.6702 36.9739 74.7039 36.6949 74.8528 36.4325C75.011 36.1538 75.238 35.9736 75.5336 35.8921C75.8292 35.8105 76.11 35.8507 76.3759 36.0124C76.6383 36.1614 76.8103 36.3837 76.8918 36.6793C76.9733 36.9749 76.9396 37.2539 76.7907 37.5163C76.6418 37.7787 76.4195 37.9506 76.1239 38.0322Z" fill="black"/>
</svg>
