<svg width="85" height="24" viewBox="0 0 85 24" fill="none" xmlns="http://www.w3.org/2000/svg">
<g clip-path="url(#clip0_1_234)">
<path d="M8.85233 14.8427C8.41268 15.571 7.85933 16.1325 7.19229 16.527C6.52524 16.9215 5.80513 17.1188 5.03197 17.1188C3.59175 17.1188 2.43958 16.6256 1.57545 15.6393C0.726485 14.6379 0.302002 13.1887 0.302002 11.2919C0.302002 10.336 0.430863 9.50142 0.688586 8.78823C0.946308 8.05987 1.29499 7.4605 1.73463 6.99011C2.17428 6.51971 2.68215 6.1707 3.25823 5.9431C3.84947 5.70031 4.47104 5.57892 5.12293 5.57892C5.83546 5.57892 6.52524 5.73824 7.19229 6.05691C7.8745 6.36038 8.42784 6.92183 8.85233 7.74122V5.82928H10.0348V16.0262C10.0348 17.0581 9.95143 17.9534 9.78468 18.7121C9.63307 19.4707 9.36777 20.0929 8.98876 20.5784C8.62492 21.0792 8.1398 21.4434 7.53339 21.671C6.92698 21.9138 6.18414 22.0352 5.30484 22.0352C4.0314 22.0352 2.99292 21.7545 2.18944 21.193C1.40111 20.6315 0.953888 19.7591 0.847767 18.5754H2.21218C2.34862 19.4404 2.69731 20.0626 3.25823 20.4419C3.81916 20.8364 4.50136 21.0337 5.30484 21.0337C5.8203 21.0337 6.29784 20.9579 6.73748 20.8061C7.17713 20.6695 7.54855 20.4191 7.85175 20.0549C8.17011 19.6908 8.41268 19.1976 8.57944 18.5754C8.76137 17.9534 8.85233 17.1643 8.85233 16.2083V14.8427ZM5.12293 6.67145C4.68328 6.67145 4.25122 6.77008 3.82674 6.96734C3.41741 7.16461 3.05357 7.4605 2.73521 7.85503C2.41684 8.23437 2.15912 8.71236 1.96203 9.28897C1.76496 9.86559 1.66642 10.5332 1.66642 11.2919C1.66642 12.8093 1.98478 13.9777 2.6215 14.7972C3.27339 15.6165 4.1072 16.0262 5.12293 16.0262C5.71418 16.0262 6.2372 15.9125 6.69201 15.6849C7.1468 15.4421 7.52581 15.1083 7.82902 14.6834C8.13222 14.2585 8.35962 13.7577 8.51122 13.1811C8.67798 12.6045 8.76136 11.9748 8.76136 11.2919C8.76136 10.6546 8.67798 10.0553 8.51122 9.49382C8.35962 8.93239 8.13222 8.44682 7.82902 8.03711C7.52581 7.61224 7.1468 7.27841 6.69201 7.03563C6.2372 6.79284 5.71418 6.67145 5.12293 6.67145Z" fill="#939393"/>
<path d="M23.2608 11.9293H14.6195C14.6195 12.688 14.7104 13.3784 14.8924 14.0006C15.0894 14.6226 15.3547 15.1537 15.6883 15.5938C16.0369 16.0339 16.4386 16.3829 16.8934 16.6409C17.3635 16.8836 17.8789 17.0051 18.4398 17.0051C19.213 17.0051 19.8875 16.7698 20.4637 16.2994C21.0397 15.8138 21.4566 15.2069 21.7144 14.4786H23.0788C22.7756 15.6166 22.2071 16.5043 21.3733 17.1416C20.5546 17.7789 19.5768 18.0975 18.4398 18.0975C17.6666 18.0975 16.9617 17.961 16.325 17.6879C15.6883 17.4147 15.1425 17.0126 14.6876 16.4815C14.2328 15.9352 13.8766 15.2752 13.6188 14.5013C13.3762 13.7274 13.255 12.8398 13.255 11.8383C13.255 10.9278 13.3762 10.0856 13.6188 9.31178C13.8614 8.5379 14.2025 7.87023 14.6422 7.3088C15.0818 6.73219 15.6124 6.28455 16.234 5.96589C16.8707 5.64724 17.5756 5.48792 18.3488 5.48792C19.8497 5.48792 21.0397 6.00383 21.919 7.03566C22.8135 8.05233 23.2608 9.56214 23.2608 11.5651V11.9293ZM18.3488 6.58045C17.8485 6.58045 17.3862 6.69424 16.9617 6.92186C16.5523 7.1343 16.1885 7.43777 15.8702 7.8323C15.5669 8.21165 15.3092 8.65929 15.097 9.17521C14.8999 9.69113 14.7634 10.245 14.6876 10.8368H21.8736C21.7675 9.50145 21.4112 8.46203 20.8048 7.7185C20.2135 6.9598 19.3949 6.58045 18.3488 6.58045Z" fill="#939393"/>
<path d="M30.0284 7.44539V13.7502C30.0284 14.3571 30.0967 14.8579 30.2332 15.2524C30.3695 15.647 30.5515 15.9656 30.7789 16.2083C31.0064 16.436 31.2792 16.6029 31.5975 16.7091C31.9159 16.8002 32.2571 16.8458 32.6209 16.8458C32.8938 16.8458 33.1742 16.8305 33.4622 16.8002C33.7655 16.7698 34.0762 16.7243 34.3946 16.6636V17.7562C33.6972 17.8775 33.0605 17.9382 32.4844 17.9382C31.9386 17.9382 31.4383 17.8775 30.9835 17.7562C30.5287 17.6196 30.1346 17.392 29.8011 17.0733C29.4675 16.7547 29.2098 16.3374 29.0279 15.8214C28.846 15.2904 28.755 14.6304 28.755 13.8413V7.44539H25.2076V6.35286H28.755V2.55176H30.0284V6.35286H34.1217V7.44539H30.0284Z" fill="#939393"/>
<path d="M46.8927 5.82928V22.0352H45.6193V15.8214C45.1797 16.5953 44.6414 17.1567 44.0047 17.5057C43.368 17.8395 42.663 18.0065 41.8898 18.0065C41.1773 18.0065 40.5179 17.8775 39.9115 17.6195C39.3051 17.3615 38.782 16.9746 38.3424 16.4587C37.9179 15.9276 37.5843 15.2752 37.3419 14.5012C37.0993 13.7122 36.978 12.7942 36.978 11.7472C36.978 10.685 37.1144 9.76696 37.3873 8.99308C37.6601 8.20403 38.024 7.55913 38.4789 7.05838C38.9488 6.55765 39.487 6.18588 40.0934 5.9431C40.6998 5.70031 41.3289 5.57892 41.9808 5.57892C42.7086 5.57892 43.3983 5.74584 44.0502 6.07966C44.702 6.39831 45.2554 6.98252 45.7103 7.83226V5.82928H46.8927ZM41.9808 6.67145C41.5411 6.67145 41.1015 6.77767 40.6618 6.99011C40.2222 7.18737 39.8281 7.49844 39.4794 7.9233C39.1459 8.33301 38.873 8.85651 38.6608 9.49382C38.4485 10.1311 38.3424 10.8822 38.3424 11.7472C38.3424 12.6121 38.4333 13.3708 38.6153 14.0233C38.8123 14.6606 39.07 15.1992 39.3884 15.6393C39.722 16.0642 40.1085 16.3829 40.5482 16.5953C41.003 16.8077 41.4806 16.9139 41.9808 16.9139C42.5569 16.9139 43.0648 16.7926 43.5045 16.5498C43.9441 16.2918 44.3155 15.9427 44.6187 15.5027C44.9371 15.0627 45.1797 14.5468 45.3463 13.955C45.5131 13.348 45.604 12.688 45.6193 11.9748V11.5423C45.604 10.8595 45.5131 10.2222 45.3463 9.63039C45.1797 9.0386 44.9371 8.52268 44.6187 8.08264C44.3155 7.64259 43.9441 7.30117 43.5045 7.05838C43.0648 6.80043 42.5569 6.67145 41.9808 6.67145Z" fill="#939393"/>
<path d="M58.4586 5.82928H59.7322V17.7561H58.5496V15.8442C58.3828 16.2083 58.1555 16.527 57.8675 16.8002C57.5793 17.0733 57.2535 17.3084 56.8897 17.5057C56.5257 17.6879 56.1467 17.8244 55.7526 17.9154C55.3584 18.0065 54.987 18.0519 54.6383 18.0519C53.4255 18.0519 52.4704 17.6726 51.773 16.9139C51.0757 16.14 50.7271 14.9337 50.7271 13.2949V5.82928H52.0004V13.2039C52.0004 13.735 52.046 14.2281 52.1369 14.6834C52.243 15.1385 52.4022 15.5331 52.6144 15.8669C52.8419 16.2007 53.1299 16.4663 53.4786 16.6635C53.8424 16.8608 54.2896 16.9595 54.8202 16.9595C55.2447 16.9595 55.6768 16.876 56.1165 16.7091C56.5561 16.527 56.9427 16.2614 57.2762 15.9125C57.6249 15.5483 57.9053 15.1006 58.1175 14.5695C58.345 14.0233 58.4586 13.386 58.4586 12.6576V5.82928Z" fill="#939393"/>
<path d="M63.6345 6.35288H68.5464V16.6636H72.1848V17.7562H63.6345V16.6636H67.2729V7.44541H63.6345V6.35288ZM66.9091 3.64431V1.27716H68.7284V3.64431H66.9091Z" fill="#939393"/>
<path d="M76.5877 7.74128C76.7393 7.3771 76.9592 7.05845 77.2472 6.78531C77.5503 6.51218 77.8839 6.28457 78.2477 6.10248C78.6115 5.90522 78.9906 5.76107 79.3847 5.67002C79.7788 5.57897 80.1504 5.53345 80.499 5.53345C81.7118 5.53345 82.6669 5.92039 83.3643 6.69426C84.0616 7.45297 84.4103 8.65172 84.4103 10.2905V17.7562H83.1369V10.3816C83.1369 9.86565 83.0838 9.38008 82.9777 8.92485C82.8868 8.45445 82.7276 8.05235 82.5001 7.71852C82.2879 7.38468 81.9999 7.11914 81.6361 6.92188C81.2874 6.72461 80.8477 6.62599 80.3171 6.62599C79.8926 6.62599 79.4681 6.70944 79.0436 6.87636C78.6191 7.04327 78.2326 7.30123 77.8839 7.65024C77.5503 7.98406 77.2699 8.40893 77.0424 8.92485C76.8151 9.42559 76.6939 10.025 76.6786 10.723V17.7562H75.4052V5.82934H76.5877V7.74128Z" fill="#939393"/>
</g>
<defs>
<clipPath id="clip0_1_234">
<rect width="84.1082" height="23.31" fill="white" transform="translate(0.302734 0.349426)"/>
</clipPath>
</defs>
</svg>
