<svg width="50" height="53" viewBox="0 0 50 53" fill="none" xmlns="http://www.w3.org/2000/svg">
<path d="M7.02256 2.83149C8.95813 2.72256 10.8328 3.07198 12.6507 3.72378C14.6264 4.41561 16.4485 5.3907 18.1619 6.58692C20.4221 8.1751 22.5466 9.92583 24.615 11.7513C27.4729 14.268 30.1246 16.9749 32.6975 19.7815C35.4729 22.8056 38.1797 25.8931 40.7257 29.1204C43.13 32.1511 45.2207 35.3773 46.905 38.8635C47.5875 40.291 48.1996 41.7461 48.5642 43.2854C48.8052 44.2679 48.9989 45.2646 48.9786 46.296C48.9703 47.0872 48.7678 47.8283 48.3831 48.5185C47.9552 49.3068 47.3063 49.7466 46.4243 49.8387C45.9122 49.9003 45.3857 49.9147 44.8789 49.8443C43.1895 49.6054 41.5199 49.2816 39.9099 48.7153C38.0926 48.0754 36.3392 47.2766 34.6402 46.3672C31.082 44.4607 27.7019 42.2816 24.4317 39.9053C19.8437 36.5765 15.5498 32.8976 11.6418 28.7919C8.44264 25.4416 5.72928 21.7434 3.55909 17.6465C2.56693 15.7791 1.77496 13.8419 1.25249 11.7832C0.952989 10.5881 0.784363 9.3744 0.86672 8.14815C0.91566 7.45076 1.04886 6.76114 1.31592 6.11274C1.77297 4.95159 2.57007 4.12088 3.69349 3.58534C4.50079 3.19744 5.35292 2.98701 6.2224 2.88355C6.50804 2.84528 6.75962 2.84466 7.02256 2.83149Z" fill="#FFFEFD"/>
<mask id="mask0_2013_83" style="mask-type:alpha" maskUnits="userSpaceOnUse" x="0" y="2" width="49" height="48">
<path d="M7.02256 2.83149C8.95813 2.72256 10.8328 3.07198 12.6507 3.72378C14.6264 4.41561 16.4485 5.3907 18.1619 6.58692C20.4221 8.1751 22.5466 9.92583 24.615 11.7513C27.4729 14.268 30.1246 16.9749 32.6975 19.7815C35.4729 22.8056 38.1797 25.8931 40.7257 29.1204C43.13 32.1511 45.2207 35.3773 46.905 38.8635C47.5875 40.291 48.1996 41.7461 48.5642 43.2854C48.8052 44.2679 48.9989 45.2646 48.9786 46.296C48.9703 47.0872 48.7678 47.8283 48.3831 48.5185C47.9552 49.3068 47.3063 49.7466 46.4243 49.8387C45.9122 49.9003 45.3857 49.9147 44.8789 49.8443C43.1895 49.6054 41.5199 49.2816 39.9099 48.7153C38.0926 48.0754 36.3392 47.2766 34.6402 46.3672C31.082 44.4607 27.7019 42.2816 24.4317 39.9053C19.8437 36.5765 15.5498 32.8976 11.6418 28.7919C8.44264 25.4416 5.72928 21.7434 3.55909 17.6465C2.56693 15.7791 1.77496 13.8419 1.25249 11.7832C0.952989 10.5881 0.784363 9.3744 0.86672 8.14815C0.91566 7.45076 1.04886 6.76114 1.31592 6.11274C1.77297 4.95159 2.57007 4.12088 3.69349 3.58534C4.50079 3.19744 5.35292 2.98701 6.2224 2.88355C6.50804 2.84528 6.75962 2.84466 7.02256 2.83149Z" fill="black"/>
</mask>
<g mask="url(#mask0_2013_83)">
<path d="M44.3032 43.5533C44.6642 43.5831 45.0257 43.6249 45.3866 43.6548C47.8057 43.8691 50.1805 44.3972 52.5052 45.1194C52.7 45.1816 52.8841 45.2682 53.0568 45.3674C53.1183 45.4002 53.1841 45.5168 53.1632 45.5777C53.1548 45.65 53.0496 45.7032 52.9355 45.8168C52.9552 45.4923 52.7735 45.4535 52.6038 45.414C50.575 44.8567 48.5366 44.3477 46.4384 44.0814C45.6185 43.9787 44.8004 43.9118 43.9811 43.821C43.8007 43.8061 43.6465 43.8378 43.4828 43.9179C41.5783 44.8879 39.5932 45.6823 37.4988 46.2066C36.2331 46.5336 34.9627 46.7649 33.645 46.771C33.4173 46.7705 33.1884 46.746 32.9697 46.685C32.5932 46.5841 32.4814 46.2662 32.7175 45.9548C32.8752 45.7552 33.0939 45.5765 33.3138 45.4217C33.8809 45.0219 34.5149 44.7625 35.174 44.5258C36.2687 44.1355 37.3946 43.8874 38.5479 43.7098C39.5112 43.5657 40.4655 43.4819 41.4348 43.4573C41.9852 43.4418 42.5493 43.4614 43.1015 43.4817C43.2933 43.4841 43.4714 43.4512 43.6464 43.3585C44.6617 42.8164 45.6506 42.2277 46.5625 41.535C47.0591 41.1627 47.5299 40.7557 47.9374 40.28C48.2207 39.9543 48.4788 39.6059 48.6508 39.2138C48.9084 38.6138 48.9029 38.027 48.622 37.442C48.4343 37.044 48.1779 36.7094 47.8749 36.4011C47.3574 35.8759 46.7735 35.4618 46.1436 35.086C44.6125 34.1802 42.9649 33.5797 41.2439 33.1867C40.7467 33.0678 40.2518 32.9967 39.7552 32.8898C39.6465 32.8713 39.5515 32.888 39.4588 32.9526C37.6405 34.2059 35.6094 35.0385 33.5364 35.7534C31.522 36.4414 29.4634 36.9639 27.388 37.3913C25.8816 37.6944 24.3613 37.9623 22.8411 38.2301C21.879 38.3981 20.902 38.507 19.9321 38.5196C19.6446 38.522 19.3554 38.4886 19.0775 38.4426C18.9449 38.4253 18.8218 38.3596 18.7106 38.2932C18.4757 38.1492 18.3675 37.9031 18.4625 37.6467C18.536 37.4393 18.6448 37.2182 18.7924 37.055C19.0541 36.7783 19.3403 36.5124 19.6409 36.2936C20.576 35.5878 21.6283 35.0678 22.695 34.595C24.5946 33.769 26.5785 33.1904 28.6073 32.7892C30.7311 32.3713 32.8638 32.1327 35.0187 32.0966C36.4314 32.0738 37.8495 32.1585 39.261 32.3514C39.3817 32.3693 39.5018 32.3753 39.6171 32.2857C40.229 31.8237 40.8027 31.3157 41.2383 30.6828C41.384 30.4838 41.5047 30.2621 41.6135 30.041C42.0036 29.2186 41.9743 28.3934 41.5386 27.5885C41.2481 27.0519 40.8309 26.6175 40.3564 26.2339C39.7946 25.7827 39.1773 25.4183 38.5265 25.1034C37.0283 24.3757 35.4357 23.9163 33.8132 23.5782C31.0888 23.0077 28.322 22.7869 25.5342 22.8666C25.4028 22.8732 25.2492 22.9168 25.1327 22.9826C21.888 24.9423 18.3976 26.3033 14.7715 27.3476C13.9212 27.5939 13.0446 27.7936 12.1637 27.9096C11.6875 27.9694 11.2094 27.9933 10.7373 27.8972C10.604 27.8679 10.4576 27.8153 10.3345 27.7496C9.94069 27.5417 9.81397 27.1646 10.0344 26.7821C10.1563 26.5843 10.3021 26.3853 10.4862 26.2323C10.7969 25.9771 11.1327 25.7446 11.4703 25.548C12.5883 24.9049 13.7877 24.4494 15.0019 24.0531C17.2189 23.343 19.4956 22.8695 21.819 22.6094C22.8439 22.4981 23.8831 22.4341 24.9091 22.3467C25.0286 22.3408 25.1589 22.3103 25.2635 22.2451C26.262 21.608 27.2204 20.889 28.0026 19.9992C28.5583 19.3722 29.0034 18.691 29.2388 17.8884C29.4025 17.329 29.4461 16.7637 29.3331 16.1823C29.1908 15.4945 28.84 14.9489 28.3254 14.4834C27.8736 14.0747 27.3668 13.7646 26.8146 13.5047C25.6857 12.9742 24.4953 12.6504 23.2858 12.4234C21.1572 12.0268 19.0178 11.8943 16.851 11.931C16.4799 11.9376 16.1094 11.9561 15.7263 11.9633C15.5829 11.9705 15.4777 12.0237 15.3875 12.1361C13.2328 14.5684 10.5552 16.1284 7.39343 16.8738C6.00766 17.1949 4.59976 17.3133 3.1751 17.0971C2.80101 17.044 2.42392 16.9311 2.07014 16.805C1.86277 16.7315 1.65241 16.5983 1.48926 16.4507C1.16355 16.1674 1.09479 15.7515 1.31586 15.381C1.45986 15.1462 1.64031 14.9214 1.86021 14.7667C2.25339 14.4834 2.67108 14.2108 3.10371 13.9975C4.22533 13.4261 5.42883 13.0543 6.63473 12.7303C9.33036 12.0081 12.0661 11.6075 14.849 11.4322C15.0761 11.4208 15.2279 11.3413 15.3743 11.1542C16.2956 9.9339 16.7891 8.54327 17.0011 7.03495C17.1689 5.84036 17.1802 4.62966 17.1556 3.42075C17.1364 2.55903 17.0933 1.69852 17.0263 0.839194C16.9922 0.397583 16.9216 -0.0541844 16.8397 -0.493405C16.7907 -0.754543 16.7058 -1.01389 16.4446 -1.20449C16.6478 -1.21467 16.7596 -1.1364 16.8259 -1.00792C16.9442 -0.798181 17.0626 -0.588437 17.1337 -0.364348C17.3591 0.307314 17.4428 1.02202 17.502 1.72597C17.639 3.26474 17.6684 4.80889 17.6255 6.34468C17.5695 8.09681 17.1239 9.72467 16.1189 11.1888C16.0854 11.2384 16.0639 11.2874 16.0203 11.3735C16.1523 11.3789 16.2599 11.3735 16.3561 11.3806C18.1028 11.3291 19.843 11.3857 21.5671 11.5989C23.0258 11.7774 24.4654 12.0528 25.8435 12.5349C26.4411 12.7446 27.0279 12.9788 27.5717 13.311C27.9303 13.5327 28.2775 13.7669 28.5913 14.0508C29.7322 15.06 30.1076 16.3352 29.7862 17.813C29.6213 18.5881 29.2599 19.2652 28.7878 19.8879C28.1246 20.7599 27.3095 21.4717 26.4305 22.1028C26.3612 22.1542 26.2919 22.2056 26.2226 22.257C26.2112 22.2695 26.2124 22.2934 26.1903 22.3305C26.574 22.3352 26.9576 22.34 27.3293 22.3453C30.4726 22.4275 33.5717 22.8234 36.5675 23.7877C37.5171 24.0876 38.435 24.4729 39.3099 24.9563C39.9506 25.3076 40.5578 25.7086 41.064 26.2463C41.3419 26.532 41.5971 26.8427 41.8062 27.1917C42.4452 28.226 42.4632 29.3035 41.9183 30.3851C41.5693 31.0736 41.0591 31.6503 40.4854 32.1583C40.3707 32.2599 40.256 32.3615 40.1185 32.4882C40.2518 32.5175 40.3492 32.5485 40.446 32.5676C42.3332 32.9284 44.1589 33.496 45.8585 34.4173C46.5978 34.8236 47.3035 35.2795 47.9311 35.8471C48.3207 36.211 48.6638 36.6012 48.9154 37.0798C49.3642 37.9081 49.3703 38.7465 48.9449 39.5825C48.7053 40.0618 48.3785 40.4736 48.014 40.8513C47.4445 41.4429 46.8111 41.9539 46.1383 42.395C45.6166 42.7446 45.0693 43.0596 44.5351 43.3979C44.4538 43.4499 44.3719 43.4899 44.2907 43.5419C44.2895 43.518 44.2901 43.53 44.3032 43.5533ZM38.8391 32.7799C38.7537 32.7483 38.7172 32.7381 38.6808 32.728C37.632 32.6008 36.5868 32.5453 35.5321 32.5382C33.5547 32.5294 31.5994 32.7232 29.6507 33.0485C27.5837 33.4036 25.5735 33.9356 23.635 34.7037C22.3896 35.1974 21.185 35.785 20.0855 36.5589C19.8076 36.7526 19.5435 36.9815 19.292 37.2217C19.1772 37.3233 19.0768 37.4721 18.9998 37.6078C18.9006 37.7805 18.9287 37.863 19.1229 37.9131C19.3052 37.9639 19.4982 37.9902 19.69 37.9926C20.8302 38.0313 21.9608 37.8788 23.089 37.6785C24.6929 37.4065 26.295 37.0986 27.884 36.7674C29.9354 36.3411 31.957 35.7966 33.9344 35.0864C35.5472 34.5144 37.1074 33.8492 38.5726 32.961C38.6306 32.9222 38.7119 32.8702 38.8391 32.7799ZM14.5915 12.0322C14.4594 12.0268 14.3877 12.0304 14.3041 12.0346C11.6663 12.2386 9.0633 12.6565 6.51108 13.3715C5.38825 13.6793 4.28036 14.0463 3.24121 14.5896C2.89104 14.7749 2.55522 15.0074 2.23135 15.2393C2.09212 15.3302 1.97979 15.4796 1.89076 15.6158C1.79038 15.7646 1.80832 15.8835 1.93382 15.9971C2.00912 16.0652 2.10833 16.1321 2.19378 16.1638C2.45016 16.2588 2.71848 16.3532 2.98441 16.3998C4.16944 16.616 5.3652 16.5681 6.55258 16.3528C9.55719 15.8189 12.1488 14.455 14.3184 12.3214C14.4105 12.2449 14.478 12.1577 14.5915 12.0322ZM24.0534 22.9647C24.0528 22.9528 24.0397 22.9295 24.0391 22.9175C24.0032 22.9193 23.9668 22.9092 23.9309 22.911C20.9938 23.118 18.1069 23.6101 15.2876 24.4941C14.096 24.8653 12.932 25.3071 11.848 25.9125C11.4985 26.1097 11.1746 26.3416 10.8513 26.5855C10.7127 26.6883 10.601 26.8496 10.5006 26.9984C10.4229 27.1221 10.4516 27.2166 10.5867 27.2817C10.7337 27.3462 10.8914 27.3862 11.0599 27.4018C11.7227 27.4764 12.3752 27.3479 13.0278 27.2193C14.3914 26.9353 15.7372 26.5324 17.056 26.071C19.3763 25.2718 21.6303 24.3442 23.7869 23.1458C23.8556 23.0825 23.9483 23.0179 24.0534 22.9647ZM32.9266 46.3038C33.137 46.437 33.3647 46.4376 33.5804 46.4388C34.3107 46.4262 35.0487 46.3293 35.7729 46.1972C38.1471 45.7547 40.3945 44.9353 42.5714 43.9036C42.63 43.8767 42.6874 43.8259 42.7919 43.7608C42.48 43.7525 42.2517 43.7399 42.0121 43.7399C40.4309 43.7473 38.8569 43.898 37.3169 44.2507C36.2269 44.497 35.1519 44.8025 34.148 45.332C33.8325 45.4916 33.5433 45.6978 33.2535 45.892C33.1017 45.9715 32.9762 46.0976 32.9266 46.3038Z" fill="black"/>
</g>
</svg>
