<svg width="57" height="59" viewBox="0 0 57 59" fill="none" xmlns="http://www.w3.org/2000/svg">
<path d="M25.812 14.6018C25.7448 14.3715 25.7151 14.1253 25.6173 13.8864C25.4593 13.3928 25.1821 12.9713 24.6053 12.6771C23.5977 12.1561 22.3797 12.5008 22.1112 13.456C21.891 14.2397 21.7624 15.0491 21.6644 15.8672C21.0162 22.397 23.228 28.4887 28.0583 34.1799C29.3682 35.7372 30.4741 37.3164 31.3791 39.0242C32.6926 41.5073 34.0809 43.9587 35.7925 46.3159C36.7633 47.6722 37.8601 48.9317 39.1441 50.1118C39.9301 50.8348 40.8117 51.4525 41.8774 51.8841C43.6559 52.5954 45.3125 52.2154 46.0005 50.8232C46.7092 49.3576 46.7111 47.8255 45.8703 46.2415C45.222 45.0287 44.3352 43.9603 43.1726 43.0522C42.359 42.4272 41.5455 41.8021 40.6945 41.193C34.7819 36.8888 31.116 31.6304 29.6759 25.4914C29.0897 23.0013 29.027 20.5261 29.1919 18.0621C29.3453 15.9912 29.5292 13.9288 29.6757 11.8824C29.7079 11.4158 29.679 10.932 29.6501 10.4483C29.4987 8.05387 27.9689 6.22337 25.632 4.80028C24.5671 4.13104 23.3486 3.65645 22.1675 3.16595C21.7298 2.96365 21.1965 2.86663 20.6938 2.77819C19.9328 2.67002 19.3948 2.94163 19.2335 3.39837C19.1027 3.86369 19.3968 4.34271 20.082 4.72027C21.1676 5.31604 22.2837 5.92039 23.3692 6.51616C24.2546 7.00283 24.9016 7.63389 25.4156 8.38613C25.9365 9.11387 26.2159 9.87946 26.1859 10.6902C26.1206 11.861 26.0554 13.0318 25.9595 14.194C25.9557 14.325 25.8907 14.4389 25.8563 14.5614C25.88 14.5944 25.8494 14.5858 25.812 14.6018ZM36.871 42.1267C36.9932 42.1611 37.0306 42.1452 37.0918 42.1624C38.424 43.171 39.7631 44.1551 41.0953 45.1637C41.8546 45.7471 42.4061 46.4834 42.8146 47.2589C43.1285 47.902 43.1466 48.5413 42.8997 49.1854C41.1625 48.3272 38.0248 44.5914 36.871 42.1267Z" fill="white"/>
<path d="M10.9233 8.44659C10.51 10.973 9.9646 13.3829 9.8539 15.8886C9.78918 17.8787 9.56478 19.8504 9.43894 21.8234C9.37451 22.7566 9.40175 23.7155 9.429 24.6745C9.44799 25.0762 9.55866 25.5037 9.57077 25.9299C9.77006 29.2098 10.7105 32.4337 12.1949 35.5991C12.5424 36.3574 12.8898 37.1157 13.3053 37.8666C16.0958 42.7204 19.9966 46.9085 24.8817 50.5276C26.4989 51.6955 28.1161 52.8635 29.9518 53.723C32.0183 54.7001 34.1398 55.4814 36.4365 55.7569C38.2235 55.9685 39.9404 55.8432 41.5259 55.3639C42.8257 54.9629 43.9291 54.3217 44.7752 53.4232C47.1291 50.9137 45.9734 47.0479 43.247 45.2511C41.3548 44.0058 39.4695 42.7361 37.5536 41.4577C33.2268 38.5505 29.9355 35.0094 27.6964 30.8919C26.457 28.6146 25.8976 26.2641 25.4742 23.8989C24.9134 20.9667 25.0761 18.1585 26.0067 15.434C26.5114 13.9903 26.9549 12.5294 27.429 11.0772C27.8343 9.86982 27.8217 8.62428 27.4896 7.34184C27.1912 6.17453 26.4809 5.18215 25.3893 4.37328C23.3146 2.83887 20.9761 1.89097 18.302 1.66792C16.5929 1.5311 15.1945 1.93086 14.0933 2.91619C13.1762 3.71546 12.4287 4.61524 11.9968 5.68296C11.6229 6.66132 11.2628 7.59069 10.9233 8.44659Z" fill="black"/>
<mask id="mask0_2013_91" style="mask-type:alpha" maskUnits="userSpaceOnUse" x="9" y="1" width="38" height="55">
<path d="M10.9233 8.44659C10.51 10.973 9.9646 13.3829 9.8539 15.8886C9.78918 17.8787 9.56478 19.8504 9.43894 21.8234C9.37451 22.7566 9.40175 23.7155 9.429 24.6745C9.44799 25.0762 9.55866 25.5037 9.57077 25.9299C9.77006 29.2098 10.7105 32.4337 12.1949 35.5991C12.5424 36.3574 12.8898 37.1157 13.3053 37.8666C16.0958 42.7204 19.9966 46.9085 24.8817 50.5276C26.4989 51.6955 28.1161 52.8635 29.9518 53.723C32.0183 54.7001 34.1398 55.4814 36.4365 55.7569C38.2235 55.9685 39.9404 55.8432 41.5259 55.3639C42.8257 54.9629 43.9291 54.3217 44.7752 53.4232C47.1291 50.9137 45.9734 47.0479 43.247 45.2511C41.3548 44.0058 39.4695 42.7361 37.5536 41.4577C33.2268 38.5505 29.9355 35.0094 27.6964 30.8919C26.457 28.6146 25.8976 26.2641 25.4742 23.8989C24.9134 20.9667 25.0761 18.1585 26.0067 15.434C26.5114 13.9903 26.9549 12.5294 27.429 11.0772C27.8343 9.86982 27.8217 8.62428 27.4896 7.34184C27.1912 6.17453 26.4809 5.18215 25.3893 4.37328C23.3146 2.83887 20.9761 1.89097 18.302 1.66792C16.5929 1.5311 15.1945 1.93086 14.0933 2.91619C13.1762 3.71546 12.4287 4.61524 11.9968 5.68296C11.6229 6.66132 11.2628 7.59069 10.9233 8.44659Z" fill="black"/>
</mask>
<g mask="url(#mask0_2013_91)">
<path d="M10.3001 6.67475C10.5592 6.45689 10.6822 6.25365 10.9138 6.13375C11.5197 5.85482 12.0952 5.56731 12.7485 5.35455C17.4646 3.82608 22.4486 3.45632 27.7004 4.24529C29.5042 4.51442 31.2806 4.88153 32.9911 5.60009C33.2829 5.73496 33.5747 5.86982 33.8597 6.02918C34.3448 6.29764 34.3921 6.3638 34.557 6.83296C34.9689 6.65803 35.0476 6.49518 34.7665 6.20478C34.4855 5.91438 34.16 5.66437 33.7834 5.47925C32.8675 4.98399 31.9033 4.66017 30.8811 4.42573C24.5269 2.98342 18.4527 3.12605 12.7226 4.97732C12.0693 5.19009 11.4259 5.48491 10.8199 5.76384C10.5884 5.88374 10.3499 6.02813 10.1658 6.21419C9.82795 6.59491 9.95239 6.97341 10.5636 7.14518C11.1136 7.29978 11.708 7.41398 12.2551 7.46202C14.8681 7.66789 17.4574 7.84068 20.0467 8.01347C21.5656 8.12325 23.1013 8.2906 24.6193 8.63797C25.1763 8.76808 25.7432 8.98025 26.2795 9.18383C26.4865 9.26844 26.6729 9.42652 27.0052 9.65204C26.5933 9.82696 26.348 9.99584 26.0317 10.0655C25.2187 10.2598 24.4057 10.4541 23.5996 10.6239C21.807 11.0186 19.9671 11.3471 18.1982 11.7748C13.878 12.8332 10.3804 14.8363 7.6581 17.7179C7.19419 18.1953 6.8082 18.7474 6.42221 19.2996C6.21049 19.5836 6.11413 19.9264 6.02465 20.2448C5.81815 20.9796 6.20083 21.3778 7.14901 21.4064C7.67238 21.4214 8.17895 21.3788 8.69929 21.2872C10.4338 20.9819 12.1446 20.6436 13.8859 20.3138C17.202 19.6603 20.5044 19.0557 23.9618 18.8383C25.2026 18.7642 26.4366 18.7146 27.7003 18.9112C27.9211 18.9469 28.1044 18.9984 28.5017 19.11C28.0997 19.367 27.8544 19.5359 27.5854 19.6717C26.7479 20.0705 25.8799 20.4608 25.0424 20.8596C21.0834 22.6273 17.5582 24.7283 14.6663 27.5094C13.0431 29.0615 11.6437 30.7558 10.6751 32.6768C10.2951 33.4421 9.90832 34.2318 9.86454 35.0915C9.85077 35.1405 9.86068 35.2226 9.84692 35.2716C9.78854 36.4179 10.5341 37.0502 11.9247 36.9125C12.5673 36.8553 13.193 36.7405 13.7409 36.5509C15.3097 36.0141 16.8784 35.4773 18.4234 34.9073C21.3263 33.847 24.2125 32.7291 27.1321 31.7263C28.2653 31.3313 29.5169 31.1017 30.7448 30.839C31.204 30.7303 31.7205 30.7697 32.1896 30.743C32.2439 30.7847 32.2676 30.8178 32.3149 30.8839C32.1987 31.0627 32.1131 31.25 31.9427 31.3871C31.4551 31.8314 30.937 32.2672 30.4494 32.7115C27.7425 35.0689 25.29 37.5771 23.2477 40.3855C21.7519 42.4227 20.677 44.6045 20.1927 47.0317C20.065 47.6036 20.0595 48.2098 20.0234 48.8074C20.0157 49.0695 20.0691 49.3488 20.1905 49.6207C20.4463 50.3532 21.0536 50.656 21.8666 50.4617C22.3564 50.3616 22.8363 50.1793 23.2313 49.9468C24.2836 49.3705 25.3496 48.7453 26.3545 48.1028C29.117 46.3688 31.8016 44.56 34.8215 43.0834C36.3093 42.3652 37.8375 41.7377 39.3658 41.1102C39.7708 40.9598 40.2231 40.8755 40.6518 40.7582C40.706 40.7999 40.7297 40.8329 40.7839 40.8746C40.5722 41.1586 40.3231 41.4586 40.1114 41.7426C38.8449 43.3157 37.4868 44.863 36.2746 46.4778C35.0042 48.1819 33.9035 49.9866 33.1321 51.9102C32.8714 52.6033 32.6786 53.289 32.5096 54.0078C32.4476 54.2283 32.4537 54.4414 32.4834 54.6876C32.5421 55.4175 33.0814 55.7276 33.8707 55.5002C34.1939 55.4061 34.4935 55.2789 34.7693 55.1186C35.4708 54.7344 36.1349 54.3661 36.8127 53.9488C41.7722 50.8504 46.8096 47.8267 52.0433 45.0432C53.4395 44.2993 54.8829 43.6215 56.3776 42.8789C56.1667 42.9253 56.007 42.9069 55.8878 42.9791C54.2197 43.7522 52.4973 44.4837 50.9002 45.3561C45.9798 47.9635 41.2015 50.7693 36.5553 53.6915C35.7957 54.1651 34.9888 54.5725 34.2124 54.9885C33.9434 55.1243 33.6034 55.1609 33.3107 55.2636C32.9655 54.8495 33.0619 54.5066 33.1277 54.1551C33.4184 52.6513 34.0927 51.3082 34.8586 49.9908C36.3973 47.3315 38.2753 44.8732 40.4145 42.5412C40.7454 42.185 41.0458 41.8202 41.3225 41.4223C41.4318 41.2681 41.5243 41.0562 41.5793 40.8603C41.6382 40.5333 41.3808 40.276 40.956 40.2623C40.5618 40.2572 40.1469 40.3256 39.8168 40.4442C38.6461 40.8551 37.4755 41.266 36.3828 41.7517C33.1115 43.1841 30.1924 45.0062 27.3206 46.8945C26.0704 47.7058 24.8271 48.4927 23.5532 49.271C23.0763 49.5597 22.5521 49.7824 22.0043 49.9719C21.3135 50.2006 20.9132 49.9824 20.7659 49.3332C20.582 48.4623 20.748 47.637 20.9446 46.8202C21.3997 44.9662 22.2078 43.2643 23.2909 41.6396C25.399 38.4797 28.1106 35.7537 31.0528 33.1453C31.5404 32.701 32.0586 32.2653 32.5462 31.821C32.7303 31.6349 32.8977 31.3913 32.9971 31.155C33.189 30.7068 32.9217 30.3674 32.3204 30.2777C31.9399 30.2236 31.5151 30.2099 31.1308 30.2869C30.0901 30.4701 29.0425 30.6777 28.0423 30.9516C24.9875 31.7314 22.1999 32.8505 19.4193 33.9452C17.7481 34.6118 16.0533 35.2454 14.3584 35.8789C13.8037 36.0929 13.171 36.2322 12.5758 36.3556C12.222 36.4412 11.8515 36.4691 11.4878 36.4726C10.791 36.4882 10.4419 36.2051 10.403 35.6393C10.3772 35.262 10.4124 34.902 10.5157 34.5346C10.8981 33.0566 11.7488 31.7895 12.6912 30.5481C15.0438 27.4569 18.203 25.0152 21.8908 23.0392C23.4436 22.2072 25.0674 21.4744 26.6744 20.6841C27.2055 20.437 27.7435 20.1654 28.2509 19.8852C28.4824 19.7652 28.6528 19.6282 28.8064 19.4335C29.0694 19.0846 28.9381 18.7306 28.4185 18.5846C27.9976 18.4399 27.5254 18.36 27.077 18.3132C25.4053 18.1605 23.7564 18.2785 22.0938 18.4454C19.1086 18.7427 16.2448 19.3119 13.3741 19.9057C11.8673 20.2221 10.3674 20.514 8.83695 20.7974C8.27917 20.9049 7.67403 20.9462 7.07578 20.9631C6.41641 20.9627 6.21323 20.7471 6.38145 20.2658C6.52902 19.8581 6.71404 19.4344 7.01441 19.0696C8.40778 17.1622 10.3672 15.7046 12.5367 14.4381C14.5869 13.2439 16.8907 12.438 19.384 11.8967C21.0336 11.5412 22.6696 11.2346 24.3192 10.879C24.877 10.7716 25.4417 10.6396 26.0063 10.5076C26.2547 10.4453 26.4724 10.3743 26.6597 10.2948C27.0272 10.1603 27.3168 9.95102 27.291 9.5738C27.2582 9.22107 26.9259 8.99555 26.5661 8.86799C25.877 8.62148 25.2016 8.32597 24.4781 8.20191C23.2213 7.98081 21.9271 7.77562 20.6664 7.68557C18.152 7.48097 15.678 7.36703 13.1567 7.18693C12.6097 7.13888 12.0627 7.09084 11.4919 7.00971C11.2031 6.9814 10.8196 6.82076 10.3001 6.67475Z" fill="#FBE8DE"/>
</g>
</svg>
