<svg width="64" height="62" viewBox="0 0 64 62" fill="none" xmlns="http://www.w3.org/2000/svg">
<path d="M63.384 11.5864C63.2935 14.0085 62.6395 16.3012 61.6157 18.4879C60.5237 20.8664 59.097 23.0206 57.4077 25.0136C55.1667 27.6415 52.7391 30.0816 50.2252 32.443C46.7584 35.7064 43.0791 38.6909 39.2848 41.5656C35.1961 44.6671 31.0366 47.6757 26.7218 50.4678C22.6682 53.1065 18.408 55.332 13.8717 57.0212C12.0149 57.7041 10.1321 58.2959 8.17335 58.57C6.92231 58.7551 5.65893 58.8797 4.37738 58.734C3.39347 58.6313 2.49472 58.2926 1.68047 57.733C0.749251 57.1083 0.277521 56.2491 0.265931 55.1404C0.249097 54.4958 0.292703 53.8387 0.439637 53.2162C0.934399 51.1411 1.53249 49.1006 2.42561 47.1627C3.43444 44.9753 4.63368 42.8861 5.96418 40.8774C8.75323 36.671 11.8607 32.7181 15.2008 28.925C19.8805 23.603 24.9617 18.6878 30.529 14.3029C35.0733 10.7121 39.9939 7.76667 45.3472 5.54395C47.7876 4.52712 50.2916 3.76766 52.9153 3.35784C54.4379 3.12468 55.9684 3.05659 57.4852 3.30239C58.3476 3.4448 59.1905 3.69119 59.9664 4.09939C61.3584 4.804 62.2993 5.89329 62.8346 7.35427C63.2232 8.40452 63.3855 9.48984 63.4127 10.5842C63.427 10.9443 63.3984 11.2575 63.384 11.5864Z" fill="#FFFEFD"/>
<mask id="mask0_2013_87" style="mask-type:alpha" maskUnits="userSpaceOnUse" x="0" y="3" width="64" height="56">
<path d="M63.384 11.5864C63.2935 14.0085 62.6395 16.3012 61.6157 18.4879C60.5237 20.8664 59.097 23.0206 57.4077 25.0136C55.1667 27.6415 52.7391 30.0816 50.2252 32.443C46.7584 35.7064 43.0791 38.6909 39.2848 41.5656C35.1961 44.6671 31.0366 47.6757 26.7218 50.4678C22.6682 53.1065 18.408 55.332 13.8717 57.0212C12.0149 57.7041 10.1321 58.2959 8.17335 58.57C6.92231 58.7551 5.65893 58.8797 4.37738 58.734C3.39347 58.6313 2.49472 58.2926 1.68047 57.733C0.749251 57.1083 0.277521 56.2491 0.265931 55.1404C0.249097 54.4958 0.292703 53.8387 0.439637 53.2162C0.934399 51.1411 1.53249 49.1006 2.42561 47.1627C3.43444 44.9753 4.63368 42.8861 5.96418 40.8774C8.75323 36.671 11.8607 32.7181 15.2008 28.925C19.8805 23.603 24.9617 18.6878 30.529 14.3029C35.0733 10.7121 39.9939 7.76667 45.3472 5.54395C47.7876 4.52712 50.2916 3.76766 52.9153 3.35784C54.4379 3.12468 55.9684 3.05659 57.4852 3.30239C58.3476 3.4448 59.1905 3.69119 59.9664 4.09939C61.3584 4.804 62.2993 5.89329 62.8346 7.35427C63.2232 8.40452 63.3855 9.48984 63.4127 10.5842C63.427 10.9443 63.3984 11.2575 63.384 11.5864Z" fill="black"/>
</mask>
<g mask="url(#mask0_2013_87)">
<path d="M8.33786 53.2345C8.25853 53.6803 8.16426 54.1255 8.08493 54.5713C7.53549 57.5574 6.60068 60.4519 5.42997 63.2612C5.32986 63.4965 5.20051 63.7155 5.05687 63.9189C5.00877 63.9917 4.85604 64.0599 4.78261 64.0267C4.69358 64.0079 4.63965 63.8708 4.51164 63.7154C4.91326 63.7778 4.98282 63.5562 5.05173 63.3496C5.9826 60.8892 6.85433 58.4113 7.43102 55.8307C7.65468 54.8221 7.8335 53.8116 8.04221 52.8023C8.08187 52.5794 8.06045 52.3838 7.97988 52.1706C6.9949 49.6867 6.23804 47.1228 5.83018 44.4544C5.57103 42.8407 5.43146 41.2322 5.57785 39.5913C5.60517 39.3079 5.66239 39.0259 5.76379 38.7608C5.93346 38.3039 6.34224 38.2019 6.70224 38.5321C6.93228 38.7518 7.12917 39.0449 7.29616 39.3367C7.7276 40.0893 7.97643 40.9088 8.19406 41.7569C8.552 43.1653 8.72928 44.5957 8.81557 46.0521C8.88239 47.268 8.87513 48.4657 8.79248 49.6752C8.74757 50.3621 8.65717 51.062 8.56741 51.7469C8.54205 51.9855 8.56217 52.211 8.65703 52.4397C9.2132 53.7668 9.83046 55.0667 10.5862 56.2827C10.9916 56.9443 11.4432 57.578 11.9878 58.1408C12.3601 58.5314 12.7637 58.8935 13.2315 59.1535C13.9483 59.5441 14.6794 59.6059 15.4405 59.3246C15.9578 59.1375 16.4043 58.8574 16.8235 58.5163C17.5378 57.9334 18.1214 57.255 18.6629 56.5148C19.9693 54.7148 20.9092 52.734 21.5996 50.6376C21.8057 50.0326 21.9519 49.4249 22.1431 48.8193C22.1788 48.686 22.1691 48.5658 22.0996 48.443C20.7519 46.0331 19.9528 43.4075 19.3052 40.7436C18.6841 38.1557 18.2743 35.5321 17.9847 32.8987C17.7835 30.988 17.6277 29.0644 17.4719 27.1407C17.3752 25.9235 17.3538 24.6946 17.4514 23.4858C17.482 23.1277 17.5574 22.7716 17.6472 22.431C17.6842 22.2679 17.7804 22.1224 17.876 21.9917C18.0827 21.7162 18.4018 21.6103 18.7098 21.7585C18.9593 21.8742 19.2219 22.0354 19.4077 22.2382C19.7216 22.5963 20.0192 22.9837 20.2563 23.3834C21.0257 24.6299 21.55 26.0006 22.0139 27.3836C22.8201 29.8447 23.3086 32.3819 23.5709 34.9542C23.8429 37.6467 23.8908 40.3294 23.6839 43.016C23.5472 44.7771 23.276 46.5324 22.871 48.2669C22.8346 48.4151 22.8131 48.5639 22.9112 48.718C23.4148 49.5336 23.9801 50.307 24.717 50.9232C24.9477 51.1279 25.2096 51.3041 25.4722 51.4652C26.4502 52.047 27.4809 52.1069 28.5337 51.6586C29.2356 51.3597 29.8251 50.8912 30.3581 50.3453C30.9853 49.6988 31.5111 48.9729 31.9791 48.1996C33.06 46.4197 33.818 44.4909 34.4284 42.5108C35.4568 39.1861 36.055 35.7678 36.2815 32.2883C36.2887 32.1239 36.2523 31.9276 36.1841 31.7749C34.1238 27.5069 32.8374 23.0031 31.9612 18.3674C31.754 17.2802 31.6079 16.1656 31.5664 15.0556C31.5476 14.4558 31.5737 13.8579 31.7485 13.2814C31.8005 13.119 31.8831 12.9429 31.9793 12.7973C32.2841 12.3314 32.7683 12.2177 33.2186 12.5368C33.4506 12.7117 33.6813 12.9164 33.8503 13.1634C34.1316 13.58 34.3818 14.0252 34.5871 14.4684C35.257 15.9353 35.6838 17.4814 36.0352 19.0392C36.6601 21.8818 36.9835 24.7712 37.0359 27.6937C37.0546 28.9824 37.0129 30.2835 37.0017 31.5709C36.9952 31.7204 37.0179 31.8861 37.0868 32.0239C37.7632 33.3413 38.5462 34.6184 39.5625 35.696C40.2779 36.4609 41.0739 37.0946 42.0455 37.4814C42.7226 37.7505 43.4212 37.8708 44.1582 37.7981C45.031 37.7014 45.7511 37.3284 46.3907 36.7423C46.9522 36.2276 47.3974 35.633 47.7855 34.976C48.5778 33.6328 49.12 32.1888 49.5438 30.7097C50.2862 28.1064 50.7011 25.4588 50.9087 22.7573C50.9438 22.2946 50.964 21.8312 50.9998 21.3535C51.0076 21.1742 50.9537 21.037 50.8244 20.9116C48.0484 17.9453 46.4195 14.4299 45.861 10.4071C45.6233 8.64459 45.6404 6.87822 46.0759 5.13008C46.1858 4.67062 46.3704 4.21443 46.5687 3.78877C46.6844 3.53923 46.8748 3.29294 47.0776 3.1071C47.4682 2.73475 47.994 2.69776 48.4294 3.01625C48.7049 3.22293 48.9635 3.47381 49.1305 3.76563C49.4372 4.28816 49.7277 4.83994 49.9427 5.40341C50.5229 6.86635 50.8451 8.4079 51.1075 9.94684C51.6914 13.3867 51.8704 16.8389 51.7635 20.3236C51.7512 20.6076 51.8324 20.8058 52.0481 21.0099C53.4595 22.2994 55.1329 23.0761 56.9857 23.5163C58.4531 23.8648 59.9588 24.0202 61.4665 24.1309C62.5414 24.2076 63.6176 24.2545 64.6951 24.2715C65.2488 24.2807 65.8194 24.2457 66.3757 24.195C66.7065 24.1645 67.0393 24.0892 67.3071 23.7863C67.296 24.0404 67.1855 24.1704 67.0178 24.238C66.7429 24.3608 66.468 24.4836 66.1807 24.5459C65.3183 24.748 64.4189 24.7687 63.5357 24.7601C61.6042 24.7509 59.6787 24.607 57.7719 24.3742C55.5975 24.0997 53.6232 23.3548 51.918 21.9327C51.8602 21.8852 51.8017 21.8527 51.6997 21.7884C51.6776 21.9521 51.6717 22.0867 51.6516 22.2056C51.5116 24.3859 51.2378 26.5455 50.771 28.6666C50.3783 30.4616 49.8673 32.2214 49.1061 33.8805C48.7753 34.5999 48.4152 35.303 47.9381 35.9411C47.6203 36.3616 47.2881 36.7664 46.8982 37.1238C45.5086 38.426 43.8774 38.7443 42.0753 38.1716C41.1298 37.8758 40.3292 37.3467 39.6092 36.6864C38.6013 35.7589 37.8105 34.6612 37.1276 33.4933C37.0717 33.401 37.0158 33.3087 36.9599 33.2164C36.9456 33.2008 36.9157 33.1995 36.8722 33.1677C36.8215 33.6447 36.7707 34.1217 36.7206 34.5837C36.251 38.4869 35.3961 42.2983 33.8458 45.9148C33.3615 47.0618 32.7745 48.1594 32.0706 49.192C31.5584 49.9484 30.9884 50.6573 30.2598 51.2246C29.8718 51.5372 29.4552 51.8185 28.9964 52.0381C27.6342 52.7126 26.2909 52.6091 25.0081 51.8044C24.1919 51.2897 23.5336 50.5871 22.9683 49.8137C22.8553 49.659 22.7422 49.5043 22.6005 49.3184C22.5485 49.4809 22.4985 49.5985 22.4634 49.7168C21.7938 52.0238 20.874 54.23 19.5285 56.238C18.9364 57.1108 18.2864 57.9361 17.5065 58.6509C17.008 59.0934 16.4822 59.4748 15.857 59.7321C14.7736 60.1941 13.7293 60.1036 12.7382 59.4764C12.1696 59.1222 11.6953 58.6672 11.2677 58.1693C10.5977 57.3914 10.0357 56.5432 9.56525 55.6541C9.19099 54.9639 8.86287 54.2458 8.5042 53.5413C8.44897 53.434 8.40869 53.3274 8.35346 53.2202C8.38335 53.2215 8.36841 53.2209 8.33786 53.2345ZM22.3869 47.6917C22.4363 47.5891 22.4532 47.5449 22.4701 47.5007C22.751 46.21 22.9422 44.9155 23.0742 43.6034C23.3162 41.143 23.3034 38.6864 23.1263 36.2227C22.9257 33.6082 22.4983 31.0437 21.7688 28.541C21.2997 26.9331 20.7091 25.3649 19.8742 23.9058C19.6656 23.5373 19.4115 23.1818 19.1418 22.8406C19.0288 22.6859 18.8553 22.5436 18.6954 22.4318C18.492 22.2882 18.3861 22.3135 18.3009 22.5494C18.2164 22.7703 18.1612 23.0075 18.1358 23.246C17.9543 24.6608 18.012 26.086 18.1295 27.5138C18.2808 29.5421 18.4768 31.5724 18.7034 33.589C18.9943 36.1924 19.436 38.7725 20.0889 41.3168C20.6125 43.3913 21.2583 45.4112 22.1926 47.3388C22.2342 47.4155 22.2894 47.5228 22.3869 47.6917ZM51.0468 19.9329C51.0689 19.7691 51.0728 19.6795 51.0773 19.5748C51.1316 16.2676 50.9155 12.9785 50.3238 9.71801C50.0718 8.28434 49.7444 6.86237 49.1895 5.50536C48.9998 5.04783 48.7496 4.60264 48.4988 4.17239C48.402 3.98847 48.2291 3.83118 48.0699 3.70443C47.8964 3.56209 47.7463 3.57053 47.5903 3.71349C47.4967 3.79926 47.4018 3.91493 47.3524 4.01761C47.2042 4.32564 47.0554 4.64861 46.9663 4.9742C46.5587 6.42404 46.4786 7.91811 46.6078 9.4213C46.9213 13.2238 48.3163 16.6092 50.7186 19.5592C50.8031 19.6827 50.9038 19.7769 51.0468 19.9329ZM36.3324 30.4336C36.3474 30.4342 36.3779 30.4206 36.3929 30.4212C36.3948 30.3764 36.4117 30.3322 36.4137 30.2873C36.4992 26.6071 36.224 22.956 35.4529 19.3432C35.1301 17.8166 34.7162 16.316 34.0892 14.896C33.8846 14.4378 33.6338 14.0075 33.368 13.5766C33.2562 13.3921 33.0684 13.2341 32.8949 13.0918C32.75 12.9806 32.6291 13.0053 32.5323 13.1658C32.4348 13.3413 32.3665 13.533 32.3275 13.741C32.1572 14.5572 32.2409 15.3845 32.3247 16.2118C32.5188 17.9425 32.8631 19.6647 33.2834 21.3603C34.0071 24.342 34.8984 27.2561 36.1381 30.0807C36.209 30.1736 36.2785 30.2964 36.3324 30.4336ZM6.24341 38.7517C6.05297 38.998 6.02564 39.2813 5.99897 39.5497C5.92935 40.4602 5.9637 41.3902 6.04355 42.3072C6.31685 45.3142 7.07433 48.2076 8.10412 51.0379C8.13076 51.1139 8.18729 51.1913 8.25616 51.329C8.30299 50.9417 8.34526 50.659 8.37324 50.3607C8.54889 48.3916 8.54519 46.4147 8.28608 44.4566C8.10684 43.071 7.85222 41.6971 7.31035 40.3856C7.14857 39.9742 6.9257 39.5901 6.71777 39.2067C6.63656 39.0084 6.49425 38.8375 6.24341 38.7517Z" fill="black"/>
</g>
</svg>
