<svg width="101" height="27" viewBox="0 0 101 27" fill="none" xmlns="http://www.w3.org/2000/svg">
<rect width="26.6175" height="26.543" rx="6" fill="url(#paint0_linear_27_332)"/>
<path d="M40.964 20.2715H36.7261V7.18057H41.0982C42.3809 7.18057 43.4824 7.44265 44.4029 7.9668C45.3234 8.48668 46.0286 9.23455 46.5187 10.2104C47.013 11.182 47.2601 12.3475 47.2601 13.7069C47.2601 15.0705 47.0109 16.2424 46.5123 17.2225C46.018 18.2026 45.302 18.9569 44.3645 19.4853C43.427 20.0094 42.2935 20.2715 40.964 20.2715ZM38.7012 18.5456H40.8553C41.8525 18.5456 42.6813 18.3581 43.3418 17.9831C44.0023 17.6039 44.4966 17.0563 44.8248 16.3404C45.1529 15.6202 45.317 14.7424 45.317 13.7069C45.317 12.6799 45.1529 11.8084 44.8248 11.0925C44.5009 10.3766 44.0172 9.83327 43.3738 9.46254C42.7303 9.0918 41.9313 8.90643 40.9768 8.90643H38.7012V18.5456ZM51.7001 20.4888C51.078 20.4888 50.5155 20.3738 50.0126 20.1436C49.5098 19.9093 49.1113 19.5705 48.8173 19.1273C48.5275 18.6841 48.3826 18.1408 48.3826 17.4973C48.3826 16.9434 48.4892 16.4874 48.7023 16.1294C48.9153 15.7715 49.203 15.4881 49.5652 15.2793C49.9274 15.0705 50.3322 14.9128 50.7797 14.8063C51.2271 14.6998 51.6831 14.6188 52.1476 14.5634C52.7356 14.4952 53.2129 14.4398 53.5794 14.3972C53.9459 14.3503 54.2122 14.2757 54.3784 14.1735C54.5446 14.0712 54.6277 13.905 54.6277 13.6749V13.6301C54.6277 13.0719 54.47 12.6394 54.1547 12.3326C53.8436 12.0257 53.3791 11.8723 52.7612 11.8723C52.1177 11.8723 51.6106 12.0151 51.2399 12.3006C50.8734 12.5819 50.6199 12.8951 50.4792 13.2402L48.6831 12.8311C48.8961 12.2346 49.2072 11.753 49.6163 11.3865C50.0297 11.0158 50.5048 10.7473 51.0417 10.5811C51.5787 10.4107 52.1433 10.3255 52.7356 10.3255C53.1277 10.3255 53.5432 10.3723 53.9821 10.4661C54.4253 10.5556 54.8386 10.7218 55.2221 10.9647C55.6099 11.2076 55.9274 11.5549 56.1746 12.0066C56.4217 12.454 56.5453 13.0357 56.5453 13.7516V20.2715H54.6788V18.9292H54.6021C54.4785 19.1763 54.2932 19.4192 54.046 19.6578C53.7988 19.8965 53.4814 20.0946 53.0936 20.2523C52.7058 20.41 52.2413 20.4888 51.7001 20.4888ZM52.1156 18.9547C52.644 18.9547 53.0957 18.8503 53.4707 18.6415C53.85 18.4327 54.1376 18.16 54.3336 17.8233C54.5339 17.4824 54.6341 17.1181 54.6341 16.7303V15.4647C54.5659 15.5328 54.4338 15.5968 54.2378 15.6564C54.046 15.7118 53.8265 15.7608 53.5794 15.8034C53.3322 15.8418 53.0915 15.878 52.8571 15.9121C52.6227 15.9419 52.4267 15.9675 52.269 15.9888C51.8983 16.0357 51.5595 16.1145 51.2527 16.2253C50.9501 16.3361 50.7072 16.4959 50.524 16.7047C50.345 16.9093 50.2555 17.182 50.2555 17.5229C50.2555 17.9959 50.4302 18.3539 50.7797 18.5968C51.1291 18.8354 51.5744 18.9547 52.1156 18.9547ZM65.7282 12.8503L63.9959 13.1571C63.9235 12.9355 63.8084 12.7246 63.6508 12.5243C63.4973 12.324 63.2885 12.16 63.0243 12.0321C62.7601 11.9043 62.4299 11.8404 62.0336 11.8404C61.4924 11.8404 61.0407 11.9618 60.6785 12.2047C60.3162 12.4434 60.1351 12.7523 60.1351 13.1316C60.1351 13.4597 60.2566 13.7239 60.4995 13.9242C60.7424 14.1245 61.1344 14.2885 61.6756 14.4164L63.2353 14.7743C64.1387 14.9831 64.812 15.3049 65.2552 15.7395C65.6983 16.1742 65.9199 16.7388 65.9199 17.4334C65.9199 18.0215 65.7495 18.5456 65.4086 19.0059C65.0719 19.4618 64.601 19.8198 63.9959 20.0797C63.3951 20.3397 62.6983 20.4696 61.9057 20.4696C60.8063 20.4696 59.9093 20.2353 59.2147 19.7665C58.5201 19.2935 58.0939 18.6223 57.9363 17.753L59.7836 17.4718C59.8986 17.9533 60.1351 18.3176 60.4931 18.5648C60.851 18.8077 61.3177 18.9292 61.8929 18.9292C62.5194 18.9292 63.0201 18.7992 63.3951 18.5392C63.7701 18.275 63.9576 17.9533 63.9576 17.574C63.9576 17.2672 63.8425 17.0094 63.6124 16.8006C63.3865 16.5918 63.0392 16.4341 62.5705 16.3276L60.9086 15.9632C59.9924 15.7544 59.3148 15.4221 58.8759 14.9661C58.4412 14.5101 58.2239 13.9327 58.2239 13.2338C58.2239 12.6543 58.3858 12.1472 58.7097 11.7125C59.0336 11.2779 59.481 10.9391 60.052 10.6962C60.6231 10.449 61.2772 10.3255 62.0144 10.3255C63.0755 10.3255 63.9107 10.5556 64.5201 11.0158C65.1294 11.4718 65.5321 12.0833 65.7282 12.8503ZM69.2125 14.4419V20.2715H67.3013V7.18057H69.187V12.0513H69.3084C69.5385 11.5229 69.8901 11.1032 70.3631 10.7921C70.8361 10.481 71.454 10.3255 72.2168 10.3255C72.8901 10.3255 73.4782 10.464 73.981 10.7409C74.4881 11.0179 74.8802 11.4313 75.1571 11.981C75.4384 12.5265 75.579 13.2083 75.579 14.0265V20.2715H73.6678V14.2566C73.6678 13.5364 73.4824 12.9782 73.1117 12.5819C72.7409 12.1813 72.2253 11.981 71.5648 11.981C71.1131 11.981 70.7083 12.0769 70.3503 12.2686C69.9966 12.4604 69.7175 12.7417 69.513 13.1124C69.3127 13.4789 69.2125 13.9221 69.2125 14.4419ZM77.4094 20.2715V10.4533H79.3207V20.2715H77.4094ZM78.3746 8.93839C78.0423 8.93839 77.7567 8.82759 77.5181 8.606C77.2837 8.38015 77.1665 8.11168 77.1665 7.8006C77.1665 7.48526 77.2837 7.2168 77.5181 6.99521C77.7567 6.76935 78.0423 6.65643 78.3746 6.65643C78.707 6.65643 78.9904 6.76935 79.2248 6.99521C79.4634 7.2168 79.5827 7.48526 79.5827 7.8006C79.5827 8.11168 79.4634 8.38015 79.2248 8.606C78.9904 8.82759 78.707 8.93839 78.3746 8.93839ZM85.8444 10.4533V11.9874H80.2962V10.4533H85.8444ZM81.8175 20.2715V9.31552C81.8175 8.70188 81.9517 8.19265 82.2202 7.78782C82.4886 7.37873 82.8444 7.07404 83.2876 6.87376C83.7308 6.66921 84.2123 6.56694 84.7322 6.56694C85.1158 6.56694 85.4439 6.5989 85.7166 6.66282C85.9893 6.72248 86.1917 6.77788 86.3239 6.82901L85.8764 8.37589C85.7869 8.35032 85.6719 8.32049 85.5312 8.2864C85.3906 8.24805 85.2202 8.22887 85.0199 8.22887C84.5554 8.22887 84.223 8.34393 84.0227 8.57404C83.8267 8.80415 83.7287 9.13654 83.7287 9.5712V20.2715H81.8175ZM88.3045 23.9533C88.019 23.9533 87.759 23.9299 87.5247 23.883C87.2903 23.8404 87.1156 23.7935 87.0005 23.7424L87.4607 22.1763C87.8102 22.2701 88.1213 22.3105 88.394 22.2978C88.6667 22.285 88.9075 22.1827 89.1163 21.9909C89.3293 21.7992 89.5168 21.486 89.6788 21.0513L89.9153 20.3993L86.323 10.4533H88.3684L90.8549 18.0726H90.9572L93.4437 10.4533H95.4955L91.4494 21.5819C91.2619 22.0932 91.0232 22.5257 90.7335 22.8794C90.4437 23.2374 90.0985 23.5059 89.698 23.6848C89.2974 23.8638 88.8329 23.9533 88.3045 23.9533Z" fill="white"/>
<path d="M98.2627 3.90785H98.9232V6.77788C98.9232 7.08327 98.8515 7.35387 98.708 7.58967C98.5645 7.82404 98.3628 8.0087 98.1029 8.14364C97.8429 8.27717 97.5383 8.34393 97.1888 8.34393C96.8408 8.34393 96.5368 8.27717 96.2769 8.14364C96.0169 8.0087 95.8152 7.82404 95.6718 7.58967C95.5283 7.35387 95.4566 7.08327 95.4566 6.77788V3.90785H96.115V6.72461C96.115 6.92205 96.1583 7.09748 96.2449 7.25089C96.333 7.4043 96.4573 7.52504 96.6178 7.6131C96.7783 7.69975 96.9687 7.74308 97.1888 7.74308C97.4104 7.74308 97.6015 7.69975 97.762 7.6131C97.9239 7.52504 98.0475 7.4043 98.1327 7.25089C98.2194 7.09748 98.2627 6.92205 98.2627 6.72461V3.90785ZM100.119 3.90785V8.27148H99.4604V3.90785H100.119Z" fill="#929292"/>
<path d="M15.4234 4.77148L9.75677 13.2715H18.2568L12.5901 21.7715" stroke="url(#paint1_linear_27_332)" stroke-width="4" stroke-linecap="round" stroke-linejoin="round"/>
<defs>
<linearGradient id="paint0_linear_27_332" x1="13.3087" y1="0" x2="13.3087" y2="26.543" gradientUnits="userSpaceOnUse">
<stop stop-color="#D9D9D9"/>
<stop offset="1"/>
</linearGradient>
<linearGradient id="paint1_linear_27_332" x1="14.0068" y1="4.77148" x2="14.0068" y2="21.7715" gradientUnits="userSpaceOnUse">
<stop stop-color="white"/>
<stop offset="1" stop-color="#626262"/>
</linearGradient>
</defs>
</svg>
