<svg width="45" height="44" viewBox="0 0 45 44" fill="none" xmlns="http://www.w3.org/2000/svg">
<g filter="url(#filter0_f_1_270)">
<circle cx="22.5993" cy="22.1762" r="15.8122" fill="white"/>
</g>
<circle cx="22.5994" cy="22.1763" r="11.9839" fill="black"/>
<path d="M22.3625 27.3254C21.631 27.3254 20.9776 27.1994 20.4023 26.9472C19.8306 26.6951 19.3778 26.3453 19.044 25.8979C18.7137 25.4469 18.5362 24.9248 18.5113 24.3318H20.1839C20.2052 24.655 20.3135 24.9355 20.5088 25.1734C20.7077 25.4078 20.9669 25.5889 21.2865 25.7168C21.6061 25.8446 21.9613 25.9085 22.3519 25.9085C22.7816 25.9085 23.1615 25.8339 23.4918 25.6848C23.8256 25.5356 24.0866 25.3279 24.2748 25.0616C24.463 24.7917 24.5571 24.481 24.5571 24.1294C24.5571 23.7636 24.463 23.4422 24.2748 23.1653C24.0902 22.8847 23.8185 22.6646 23.4598 22.5047C23.1047 22.3449 22.675 22.265 22.1708 22.265H21.2492V20.9227H22.1708C22.5756 20.9227 22.9307 20.8499 23.2361 20.7043C23.5451 20.5587 23.7865 20.3563 23.9605 20.0971C24.1345 19.8343 24.2215 19.5271 24.2215 19.1756C24.2215 18.8382 24.1452 18.5452 23.9925 18.2967C23.8434 18.0445 23.6303 17.8474 23.3533 17.7054C23.0799 17.5633 22.7567 17.4923 22.3838 17.4923C22.0287 17.4923 21.6967 17.558 21.3877 17.6894C21.0823 17.8172 20.8338 18.0019 20.642 18.2434C20.4502 18.4813 20.3473 18.7672 20.3331 19.101H18.7404C18.7581 18.5115 18.9321 17.993 19.2624 17.5456C19.5962 17.0981 20.0365 16.7484 20.5834 16.4962C21.1303 16.2441 21.7375 16.118 22.4051 16.118C23.1047 16.118 23.7084 16.2547 24.2162 16.5282C24.7276 16.7981 25.1218 17.1585 25.3988 17.6095C25.6793 18.0605 25.8178 18.5541 25.8142 19.0903C25.8178 19.7011 25.6473 20.2196 25.3029 20.6457C24.962 21.0719 24.5074 21.3577 23.9392 21.5033V21.5886C24.6637 21.6986 25.2247 21.9863 25.6225 22.4515C26.0238 22.9167 26.2226 23.4937 26.2191 24.1827C26.2226 24.7828 26.0557 25.3208 25.7184 25.7967C25.3845 26.2725 24.9282 26.6472 24.3494 26.9206C23.7706 27.1905 23.1083 27.3254 22.3625 27.3254Z" fill="white"/>
<defs>
<filter id="filter0_f_1_270" x="0.787109" y="0.364014" width="43.6243" height="43.6243" filterUnits="userSpaceOnUse" color-interpolation-filters="sRGB">
<feFlood flood-opacity="0" result="BackgroundImageFix"/>
<feBlend mode="normal" in="SourceGraphic" in2="BackgroundImageFix" result="shape"/>
<feGaussianBlur stdDeviation="3" result="effect1_foregroundBlur_1_270"/>
</filter>
</defs>
</svg>
