<svg width="45" height="44" viewBox="0 0 45 44" fill="none" xmlns="http://www.w3.org/2000/svg">
<g filter="url(#filter0_f_1_266)">
<circle cx="22.5993" cy="21.9953" r="15.8122" fill="white"/>
</g>
<circle cx="22.5994" cy="21.9954" r="11.9839" fill="black"/>
<path d="M18.799 26.9954V25.8022L22.4904 21.9776C22.8845 21.5621 23.2095 21.1981 23.4652 20.8856C23.7244 20.5696 23.9179 20.2695 24.0458 19.9854C24.1736 19.7013 24.2375 19.3995 24.2375 19.0799C24.2375 18.7177 24.1523 18.4052 23.9818 18.1424C23.8114 17.876 23.5788 17.6719 23.284 17.5298C22.9893 17.3842 22.6573 17.3114 22.288 17.3114C21.8973 17.3114 21.5564 17.3913 21.2652 17.5511C20.974 17.7109 20.7503 17.9364 20.5941 18.2276C20.4378 18.5188 20.3597 18.8597 20.3597 19.2503H18.7883C18.7883 18.5863 18.941 18.0057 19.2464 17.5085C19.5518 17.0113 19.9708 16.626 20.5035 16.3526C21.0362 16.0756 21.6416 15.9371 22.3199 15.9371C23.0053 15.9371 23.609 16.0738 24.131 16.3473C24.6566 16.6172 25.0667 16.9865 25.3615 17.4552C25.6562 17.9204 25.8036 18.446 25.8036 19.0319C25.8036 19.4368 25.7272 19.8327 25.5745 20.2198C25.4254 20.6069 25.1644 21.0383 24.7915 21.5142C24.4186 21.9865 23.9002 22.56 23.2361 23.2347L21.0681 25.5039V25.5838H25.9794V26.9954H18.799Z" fill="white"/>
<defs>
<filter id="filter0_f_1_266" x="0.787109" y="0.183105" width="43.6243" height="43.6243" filterUnits="userSpaceOnUse" color-interpolation-filters="sRGB">
<feFlood flood-opacity="0" result="BackgroundImageFix"/>
<feBlend mode="normal" in="SourceGraphic" in2="BackgroundImageFix" result="shape"/>
<feGaussianBlur stdDeviation="3" result="effect1_foregroundBlur_1_266"/>
</filter>
</defs>
</svg>
