<svg width="29" height="47" viewBox="0 0 29 47" fill="none" xmlns="http://www.w3.org/2000/svg">
<path d="M17.6338 24.9088C17.6677 25.1129 17.6418 25.2599 17.7029 25.3756C18.9816 30.1476 20.6374 34.7647 23.2514 39.0382C24.4368 40.9728 25.8808 42.6966 27.4107 44.3307C27.8009 44.761 28.1925 45.2498 28.5542 45.71C28.6752 45.8829 28.7975 46.1143 28.8314 46.3185C28.8341 46.4355 28.7509 46.6423 28.6352 46.7035C28.5195 46.7646 28.3127 46.6815 28.2229 46.5957C24.358 42.6725 21.0977 38.2965 19.1361 33.1008C18.1391 30.4301 17.2005 27.7581 16.5233 24.9924C16.4582 24.7011 16.3319 24.2941 16.1238 24.1525C13.4183 22.3107 11.5162 19.7483 9.98986 16.9725C7.60991 12.6937 5.43278 8.32256 3.16854 3.98262C3.0163 3.72259 2.86274 3.40405 2.53494 3.14799C2.19799 6.3757 1.91955 9.6021 1.58391 12.8883C1.02601 12.8131 0.843853 12.5245 0.74749 12.1461C0.649806 11.7092 0.522201 11.2437 0.51163 10.7756C0.512015 8.19947 0.512399 5.62337 0.571302 3.04595C0.58801 2.48938 0.721752 1.93016 0.885414 1.39953C1.24266 0.366887 2.11514 0.112998 3.00743 0.736874C4.73351 1.98595 6.40107 3.23634 8.06995 4.54525C8.57594 4.91439 8.67363 5.35129 8.41889 5.7376C8.16282 6.06539 7.696 6.13448 7.16142 5.79526C6.24052 5.2013 5.37682 4.54751 4.36617 3.86776C4.42997 4.10051 4.43261 4.21755 4.49377 4.33326C6.90233 8.58212 9.28228 12.8609 11.778 17.0785C12.5092 18.35 13.5305 19.4979 14.4346 20.6485C14.7963 21.1087 15.3023 21.4778 15.8409 21.9926C15.8615 21.6116 15.8549 21.319 15.8496 21.0849C15.6903 19.215 15.7352 17.3112 16.1324 15.458C16.5051 13.8102 17.1742 12.3314 18.4053 11.1034C18.8356 10.7131 19.2945 10.2929 19.8145 9.98846C22.0962 8.61963 24.7155 9.23379 26.2599 11.5115C28.2258 14.3067 28.8713 19.5614 25.4954 23.0334C23.6079 25.0081 21.2505 25.6175 18.5754 25.1217C18.2815 25.0698 17.9577 24.9893 17.6338 24.9088ZM19.2716 11.8742C18.2148 13.0398 17.5989 14.2832 17.3081 15.6656C16.7718 17.844 16.822 20.0676 17.0763 22.2574C17.1168 22.7542 17.3861 23.0116 17.801 23.2364C20.0212 24.3279 22.9937 23.7339 24.6211 21.9114C26.8192 19.4321 27.1298 15.034 25.2523 12.2661C24.0098 10.3914 22.0395 9.99678 20.1635 11.1808C19.8176 11.4228 19.4731 11.7233 19.2716 11.8742Z" fill="white"/>
</svg>
