<svg width="53" height="51" viewBox="0 0 53 51" fill="none" xmlns="http://www.w3.org/2000/svg">
<path d="M14.0621 33.6859C13.8718 33.8318 13.653 33.9486 13.4657 34.1262C13.0627 34.4521 12.7701 34.863 12.7045 35.5072C12.5834 36.6351 13.3455 37.6458 14.333 37.5504C15.1433 37.4722 15.9445 37.2992 16.7426 37.0946C23.0645 35.3361 27.9431 31.07 31.501 24.5077C32.4788 22.7231 33.5508 21.1207 34.8154 19.6592C36.655 17.5362 38.438 15.3549 40.0162 12.9064C40.9293 11.5107 41.7066 10.0324 42.3421 8.40838C42.7317 7.41403 42.9886 6.36871 43.0054 5.21901C43.0249 3.30366 42.0712 1.89685 40.5245 1.75917C38.9017 1.62883 37.4727 2.18139 36.3003 3.53834C35.4043 4.58159 34.7291 5.79486 34.3032 7.2073C34.0149 8.19187 33.7266 9.17644 33.4667 10.1902C31.5934 17.2595 28.0179 22.5798 22.8159 26.1436C20.7065 27.591 18.4218 28.5451 16.065 29.2829C14.0789 29.8892 12.0898 30.464 10.129 31.0679C9.68238 31.2067 9.24184 31.4087 8.8013 31.6106C6.62392 32.6182 5.47101 34.7067 4.98989 37.4001C4.75131 38.635 4.74978 39.9427 4.71987 41.2213C4.68967 41.7025 4.79217 42.2348 4.89163 42.7354C5.06613 43.484 5.51399 43.8872 5.99815 43.8724C6.47927 43.8259 6.81944 43.3785 6.92348 42.603C7.08609 41.3755 7.24565 40.1163 7.40827 38.8888C7.54159 37.8873 7.89579 37.0558 8.41108 36.3044C8.90104 35.5555 9.51365 35.018 10.2803 34.7526C11.3954 34.3898 12.5105 34.027 13.6286 33.6959C13.7522 33.652 13.8818 33.6714 14.0084 33.6592C14.0307 33.6251 14.0338 33.6567 14.0621 33.6859ZM35.7206 13.4168C35.7084 13.2904 35.68 13.2612 35.6739 13.1981C36.1322 11.5911 36.5651 9.98668 37.0233 8.37977C37.2924 7.46084 37.7793 6.68033 38.3544 6.01887C38.8404 5.49358 39.4298 5.24533 40.1196 5.24251C39.9481 7.17253 37.6008 11.4493 35.7206 13.4168Z" fill="white"/>
<path d="M13.7112 49.7929C16.216 49.2641 18.66 48.9005 21.036 48.0971C22.9147 47.4373 24.8339 46.9331 26.7187 46.3366C27.612 46.059 28.4961 45.6866 29.3803 45.3142C29.7479 45.1511 30.1064 44.8933 30.4993 44.7278C33.4849 43.3552 36.1501 41.312 38.5639 38.7828C39.1451 38.1845 39.7263 37.5862 40.276 36.9272C43.7912 32.5696 46.284 27.4176 47.8903 21.554C48.394 19.6238 48.8977 17.6936 49.0347 15.6712C49.1979 13.3912 49.1586 11.1307 48.5844 8.89001C48.135 7.1475 47.3971 5.5923 46.3766 4.28762C45.5324 3.22104 44.5354 2.42436 43.3916 1.96075C40.2005 0.674301 37.0148 3.15048 36.3262 6.3423C35.85 8.55688 35.3484 10.7739 34.8499 13.0225C33.7052 18.1081 31.595 22.4577 28.5667 26.0348C26.8921 28.0143 24.9033 29.3863 22.8516 30.6368C20.3209 32.2206 17.6441 33.0849 14.7675 33.2032C13.239 33.2551 11.7167 33.3702 10.1913 33.4537C8.91907 33.5128 7.76251 33.9753 6.68709 34.7488C5.70686 35.4494 5.03872 36.4706 4.67964 37.7809C3.99991 40.2703 3.96237 42.7933 4.72201 45.3669C5.21289 47.0098 6.09152 48.1687 7.40855 48.8388C8.48549 49.4045 9.59477 49.7758 10.7465 49.7922C11.7938 49.7867 12.7905 49.7862 13.7112 49.7929Z" fill="black"/>
<mask id="mask0_2013_97" style="mask-type:alpha" maskUnits="userSpaceOnUse" x="4" y="1" width="46" height="49">
<path d="M13.7112 49.7929C16.216 49.2641 18.66 48.9005 21.036 48.0971C22.9147 47.4373 24.8339 46.9331 26.7187 46.3366C27.612 46.059 28.4961 45.6866 29.3803 45.3142C29.7479 45.1511 30.1064 44.8933 30.4993 44.7278C33.4849 43.3552 36.1501 41.312 38.5639 38.7828C39.1451 38.1845 39.7263 37.5862 40.276 36.9272C43.7912 32.5696 46.284 27.4176 47.8903 21.554C48.394 19.6238 48.8977 17.6936 49.0347 15.6712C49.1979 13.3912 49.1586 11.1307 48.5844 8.89001C48.135 7.1475 47.3971 5.5923 46.3766 4.28762C45.5324 3.22104 44.5354 2.42436 43.3916 1.96075C40.2005 0.674301 37.0148 3.15048 36.3262 6.3423C35.85 8.55688 35.3484 10.7739 34.8499 13.0225C33.7052 18.1081 31.595 22.4577 28.5667 26.0348C26.8921 28.0143 24.9033 29.3863 22.8516 30.6368C20.3209 32.2206 17.6441 33.0849 14.7675 33.2032C13.239 33.2551 11.7167 33.3702 10.1913 33.4537C8.91907 33.5128 7.76251 33.9753 6.68709 34.7488C5.70686 35.4494 5.03872 36.4706 4.67964 37.7809C3.99991 40.2703 3.96237 42.7933 4.72201 45.3669C5.21289 47.0098 6.09152 48.1687 7.40855 48.8388C8.48549 49.4045 9.59477 49.7758 10.7465 49.7922C11.7938 49.7867 12.7905 49.7862 13.7112 49.7929Z" fill="black"/>
</mask>
<g mask="url(#mask0_2013_97)">
<path d="M12.2849 51.015C11.9881 50.8523 11.7541 50.8111 11.5585 50.6386C11.0792 50.1747 10.603 49.7423 10.1682 49.2102C7.03689 45.3667 4.88883 40.8542 3.72405 35.6727C3.32226 33.8937 3.02176 32.105 3.07272 30.2504C3.09285 29.9295 3.11299 29.6086 3.15845 29.2853C3.23319 28.736 3.27774 28.6679 3.65543 28.3444C3.34334 28.0237 3.16303 28.0092 2.99401 28.3764C2.825 28.7435 2.70967 29.1373 2.67337 29.5554C2.54309 30.5885 2.59007 31.6045 2.74139 32.6423C3.69596 39.0878 6.02677 44.6988 9.82594 49.3708C10.2607 49.9029 10.7683 50.396 11.2476 50.86C11.4432 51.0325 11.6641 51.2025 11.9042 51.3069C12.3813 51.484 12.6891 51.2311 12.6281 50.5992C12.5732 50.0304 12.4646 49.435 12.3114 48.9076C11.5579 46.3972 10.7821 43.9208 10.0063 41.4444C9.55903 39.9887 9.15938 38.4965 8.93393 36.9556C8.85369 36.3893 8.84637 35.7841 8.84211 35.2105C8.84607 34.9869 8.92601 34.7559 9.01601 34.3645C9.3281 34.6852 9.5743 34.8528 9.75369 35.1225C10.229 35.8101 10.7043 36.4977 11.1543 37.1877C12.1708 38.716 13.1428 40.3124 14.1816 41.8067C16.7315 45.4512 19.8644 47.987 23.5357 49.4822C24.1486 49.742 24.803 49.902 25.4574 50.0621C25.7988 50.1567 26.1533 50.1224 26.4825 50.0907C27.2422 50.0173 27.4749 49.5165 27.1586 48.6222C26.9832 48.1289 26.7601 47.672 26.4865 47.2201C25.5743 45.7136 24.6398 44.2411 23.7023 42.7371C21.8932 39.8821 20.1347 37.0223 18.681 33.8778C18.163 32.7479 17.6703 31.6155 17.3963 30.3663C17.3496 30.1475 17.3313 29.958 17.2917 29.5472C17.6767 29.8289 17.9229 29.9965 18.1468 30.1981C18.8217 30.8346 19.4996 31.5026 20.1744 32.1391C23.2548 35.1902 26.489 37.7163 30.128 39.406C32.1623 40.3576 34.2481 41.0492 36.3895 41.257C37.2403 41.3343 38.1165 41.4092 38.9339 41.1389C38.9845 41.134 39.0574 41.0951 39.1081 41.0902C40.1978 40.7299 40.5175 39.806 39.886 38.5595C39.6002 37.9811 39.2667 37.4393 38.8918 36.9971C37.8237 35.7289 36.7556 34.4607 35.6652 33.2266C33.6264 30.904 31.5399 28.618 29.5487 26.259C28.7704 25.3455 28.1035 24.2618 27.4143 23.2121C27.1468 22.8234 26.9967 22.3276 26.802 21.8999C26.8213 21.8343 26.8435 21.8003 26.8881 21.7322C27.0967 21.7758 27.3024 21.7878 27.4918 21.8971C28.0825 22.1909 28.6762 22.5163 29.2668 22.81C32.4439 24.4805 35.6695 25.8593 39.0267 26.7471C41.467 27.4044 43.89 27.6169 46.3279 27.1902C46.9072 27.1024 47.4744 26.8881 48.0446 26.7055C48.2917 26.6179 48.5327 26.4671 48.7423 26.2555C49.3326 25.752 49.3952 25.0762 48.9199 24.3886C48.6493 23.9683 48.3057 23.5869 47.9461 23.3027C47.0281 22.5303 46.0594 21.7627 45.0969 21.0584C42.4808 19.1105 39.8233 17.2623 37.3539 14.9813C36.1461 13.8541 35.0082 12.6565 33.8702 11.4588C33.5834 11.1357 33.3412 10.7445 33.0767 10.3873C33.0959 10.3217 33.1182 10.2877 33.1374 10.222C33.4788 10.3166 33.8486 10.4404 34.19 10.535C36.1147 11.1464 38.0486 11.8526 39.9926 12.3984C42.0409 12.9661 44.1216 13.3392 46.194 13.3624C46.9344 13.3547 47.6435 13.2862 48.3747 13.1837C48.6026 13.1617 48.7991 13.0789 49.0178 12.9621C49.6771 12.6434 49.7711 12.0284 49.2735 11.3748C49.0688 11.1075 48.8418 10.8743 48.5926 10.6752C47.9806 10.1602 47.397 9.67441 46.7627 9.1935C42.0797 5.69114 37.4382 2.08912 32.9495 -1.7828C31.7509 -2.81515 30.5968 -3.91558 29.3636 -5.04027C29.4832 -4.86047 29.5238 -4.70494 29.6342 -4.61993C30.9586 -3.34458 32.2637 -2.0036 33.6549 -0.830385C37.8659 2.81321 42.2106 6.25255 46.6159 9.52657C47.3323 10.0633 48.0041 10.6682 48.6728 11.2415C48.8967 11.4431 49.0539 11.7468 49.2555 11.9825C48.9944 12.4542 48.6399 12.4884 48.2884 12.5542C46.7813 12.8273 45.2852 12.6847 43.7799 12.4474C40.744 11.9751 37.7728 11.1139 34.8248 9.96342C34.373 9.78381 33.9242 9.63579 33.4532 9.52181C33.2698 9.47574 33.0389 9.46615 32.8363 9.48571C32.5102 9.54908 32.3634 9.88216 32.5044 10.2831C32.6423 10.6525 32.8561 11.0146 33.0862 11.2794C33.8928 12.222 34.6994 13.1646 35.5476 14.0076C38.0666 16.5389 40.8215 18.601 43.6209 20.595C44.8296 21.4669 46.0131 22.3412 47.1995 23.2472C47.6413 23.5872 48.0385 23.9954 48.4134 24.4375C48.8765 24.9988 48.818 25.4509 48.2661 25.8231C47.5208 26.3096 46.6912 26.4535 45.8587 26.5658C43.9656 26.8123 42.0866 26.6748 40.1802 26.253C36.4716 25.4311 32.9491 23.8896 29.4529 22.0905C28.8623 21.7967 28.2686 21.4713 27.6779 21.1775C27.4378 21.0732 27.1501 21.0053 26.8939 20.9981C26.4067 20.9814 26.187 21.3534 26.3209 21.9464C26.4082 22.3207 26.5491 22.7216 26.7599 23.0521C27.3072 23.956 27.8799 24.8574 28.4971 25.6908C30.3294 28.2565 32.3813 30.4502 34.408 32.6464C35.6341 33.9631 36.838 35.3139 38.0418 36.6646C38.4421 37.1043 38.8009 37.6437 39.1313 38.154C39.339 38.4528 39.4992 38.7882 39.634 39.126C39.9007 39.7699 39.7631 40.1978 39.2496 40.4387C38.9073 40.5993 38.5589 40.6968 38.1791 40.7334C36.6628 40.9117 35.1737 40.5771 33.6755 40.1477C29.9425 39.0731 26.5231 37.0114 23.3466 34.2884C22.0092 33.1419 20.7385 31.8933 19.4202 30.6811C18.9977 30.2754 18.5498 29.8722 18.105 29.5006C17.9095 29.3281 17.72 29.2188 17.483 29.146C17.0626 29.0272 16.7801 29.2777 16.8319 29.8148C16.8493 30.2596 16.9457 30.7287 17.0644 31.1637C17.5269 32.7774 18.2335 34.2718 18.9907 35.7614C20.348 38.4368 21.9149 40.9006 23.5071 43.3619C24.3473 44.6521 25.1621 45.9447 25.98 47.269C26.2821 47.7501 26.5396 48.2992 26.7717 48.8509C27.01 49.4657 26.8825 49.7331 26.373 49.7504C25.9395 49.7604 25.4776 49.7412 25.0288 49.5932C22.7465 48.9844 20.6786 47.6852 18.713 46.1209C16.8578 44.6417 15.2729 42.7856 13.8662 40.6571C12.9378 39.2479 12.0601 37.8338 11.1317 36.4245C10.8297 35.9434 10.5024 35.4648 10.175 34.9861C10.027 34.7772 9.88213 34.5998 9.74027 34.454C9.48187 34.1601 9.18197 33.9658 8.83967 34.1264C8.52269 34.2846 8.43269 34.676 8.44397 35.0576C8.4635 35.7892 8.43237 36.5257 8.57851 37.2451C8.82714 38.4967 9.10415 39.7775 9.47635 40.9853C10.1954 43.4034 10.9843 45.751 11.7287 48.1666C11.8819 48.694 12.035 49.2213 12.1659 49.7827C12.244 50.0622 12.233 50.4778 12.2849 51.015Z" fill="#FBE8DE"/>
</g>
</svg>
